<!-- Generated by IcoMoon.io -->
<svg version="1.1" xmlns="http://www.w3.org/2000/svg" width="36" height="32" viewBox="0 0 36 32">
<title>gilet_2_black</title>
<path fill="#000" d="M23.487 1.927c0 0-0.128-0.059-0.128-0.059-0.844 1.74-1.904 4.324-2.612 7.602-0.714 3.305-0.995 6.971-0.587 10.802 0.364 3.207 1.111 5.726 1.652 7.347-0.536-1.605-1.226-4.177-1.512-7.36-0.37-3.819-0.056-7.462 0.68-10.74 0.73-3.252 1.797-5.807 2.635-7.533 0 0-0.128-0.059-0.128-0.059z"></path>
<path fill="#000" d="M30.272 29.617c0 0 0.084-0.117 0.084-0.117-0.702-0.48-1.915-1.117-3.531-1.315-0.462-0.054-0.925-0.069-1.404-0.079-0.482-0.010-0.935-0.016-1.394-0.053-0.958-0.073-1.732-0.272-2.216-0.434 0.487 0.163 1.242 0.395 2.207 0.518 0.461 0.057 0.916 0.082 1.397 0.113 0.479 0.031 0.932 0.064 1.381 0.136 1.567 0.241 2.716 0.888 3.391 1.35 0 0 0.084-0.117 0.084-0.117z"></path>
<path fill="#000" d="M27.117 4.468c0 0 0.126-0.063 0.126-0.063-0.216-0.412-0.658-1.024-1.385-1.535-0.856-0.609-1.709-0.802-2.243-0.886 0.533 0.084 1.374 0.347 2.155 0.994 0.664 0.556 1.016 1.161 1.221 1.552 0 0 0.126-0.063 0.126-0.063z"></path>
<path fill="#000" d="M36.144 28.435c0 0 0.141 0.013 0.141 0.013 0.092-0.956 0.098-2.472-0.417-4.215-0.306-1.056-0.761-2.063-1.294-3.073-0.517-0.978-1.128-1.993-1.651-2.913-3.138-5.577-4.798-10.577-5.681-13.843 0.884 3.269 2.507 8.271 5.608 13.881 0.51 0.932 1.1 1.951 1.598 2.936 0.513 1.015 0.944 2.018 1.228 3.062 0.46 1.727 0.418 3.204 0.328 4.137 0 0 0.141 0.013 0.141 0.013z"></path>
<path fill="#000" d="M30.082 29.646c0 0 0.108 0.090 0.108 0.090 0.463-0.526 1.062-1.449 1.228-2.709 0.093-0.682 0.048-1.374-0.070-2.096-0.113-0.691-0.284-1.366-0.439-2.057-0.646-2.954-0.916-5.979-1.345-8.695-0.656-4.171-1.607-7.532-2.322-9.773 0.714 2.239 1.644 5.61 2.266 9.781 0.404 2.717 0.643 5.744 1.261 8.715 0.142 0.7 0.297 1.369 0.394 2.055 0.102 0.715 0.129 1.386 0.028 2.039-0.191 1.2-0.78 2.063-1.218 2.56 0 0 0.108 0.090 0.108 0.090z"></path>
<path fill="#000" d="M36.004 28.423c0 0 0.038-0.133 0.038-0.133-0.784-0.213-1.934-0.287-3.113 0.209-0.121 0.055-0.272 0.13-0.404 0.238-0.061 0.050-0.12 0.109-0.17 0.176-0.048 0.065-0.088 0.138-0.114 0.218-0.043 0.139-0.039 0.289 0.003 0.424s0.12 0.254 0.215 0.349c0.094 0.1 0.206 0.177 0.323 0.237 0.122 0.062 0.251 0.105 0.376 0.136 0.324 0.085 0.656 0.092 0.964 0.042 0.335-0.055 0.64-0.177 0.894-0.344 0.288-0.189 0.507-0.43 0.662-0.675 0.193-0.304 0.288-0.612 0.324-0.878-0.036 0.266-0.134 0.575-0.329 0.874-0.158 0.243-0.38 0.48-0.668 0.663-0.255 0.161-0.558 0.277-0.889 0.325-0.304 0.044-0.63 0.030-0.944-0.059-0.12-0.036-0.242-0.084-0.354-0.148-0.108-0.062-0.207-0.139-0.286-0.234-0.075-0.095-0.129-0.205-0.151-0.32s-0.010-0.232 0.034-0.33c0.025-0.057 0.060-0.108 0.101-0.155 0.043-0.048 0.094-0.090 0.146-0.126 0.115-0.078 0.248-0.132 0.368-0.177 1.117-0.457 2.199-0.379 2.934-0.18 0 0 0.038-0.133 0.038-0.133z"></path>
<path fill="#000" d="M21.812 27.618c0 0-0.090-0.106-0.090-0.106-1.221 0.986-3.268 2.412-6.166 3.308-1.715 0.546-3.216 0.739-4.167 0.792 0.967-0.054 2.442-0.176 4.208-0.66 2.936-0.831 5.068-2.23 6.305-3.228 0 0-0.090-0.106-0.090-0.106z"></path>
<path fill="#000" d="M11.854 8.917c0 0-0.136-0.035-0.136-0.035-0.959 3.522-2.024 9.202-1.423 16.11 0.272 2.867 0.752 5.129 1.094 6.622-0.335-1.464-0.76-3.799-0.953-6.633-0.525-6.903 0.599-12.519 1.555-16.028 0 0-0.136-0.035-0.136-0.035z"></path>
<path fill="#000" d="M10.269 25.167c0 0-0.126-0.065-0.126-0.065-0.486 0.895-1.224 2.204-2.244 3.725-0.33 0.494-0.705 1.028-1.136 1.499-0.415 0.453-0.889 0.854-1.453 1.133-0.457 0.228-0.957 0.361-1.46 0.402-0.528 0.043-1.046-0.018-1.516-0.165-0.528-0.164-0.979-0.43-1.34-0.727-0.476-0.392-0.777-0.823-0.959-1.173 0.182 0.35 0.477 0.785 0.946 1.188 0.356 0.305 0.804 0.584 1.335 0.764 0.473 0.16 0.998 0.237 1.541 0.208 0.516-0.027 1.036-0.15 1.516-0.373 0.592-0.277 1.091-0.68 1.528-1.135 0.453-0.472 0.847-1.008 1.189-1.498 1.050-1.508 1.818-2.822 2.305-3.719 0 0-0.126-0.065-0.126-0.065z"></path>
<path fill="#000" d="M10.179 1.109c0 0-0.118-0.076-0.118-0.076-1.541 2.28-3.699 5.998-5.189 10.942-0.998 3.319-1.616 7.018-2.458 10.367-0.803 3.224-1.727 5.807-2.379 7.454 0.656-1.656 1.607-4.209 2.46-7.434 0.878-3.345 1.539-7.038 2.568-10.331 1.53-4.91 3.703-8.58 5.234-10.846 0 0-0.118-0.076-0.118-0.076z"></path>
<path fill="#000" d="M15.856 0.202c0 0-0.001-0.138-0.001-0.138-0.65 0.006-1.692 0.088-2.896 0.342-1.176 0.25-2.059 0.565-2.661 0.779 0.578-0.205 1.533-0.472 2.687-0.644 1.232-0.185 2.21-0.196 2.874-0.202 0 0-0.001-0.138-0.001-0.138z"></path>
<path fill="#000" d="M15.712 0.109c0 0-0.131 0.059-0.131 0.059 1.107 2.323 2.659 5.998 3.622 10.764 0.561 2.692 0.774 4.979 0.841 6.428-0.069-1.479-0.207-3.709-0.699-6.454-0.887-4.779-2.394-8.532-3.501-10.856 0 0-0.131 0.059-0.131 0.059z"></path>
<path fill="#000" d="M16.716 2.29c0 0-0.079 0.12-0.079 0.12 0.401 0.251 1.036 0.564 1.874 0.727 0.628 0.123 1.311 0.149 2.004 0.041 1.362-0.221 2.309-0.868 2.845-1.31-0.537 0.442-1.529 1.029-2.865 1.168-0.678 0.075-1.336 0.019-1.933-0.123-0.797-0.189-1.388-0.506-1.767-0.744 0 0-0.079 0.12-0.079 0.12z"></path>
<path fill="#000" d="M31.394 26.275c0 0-0.126 0.032-0.126 0.032 0.173 0.654 0.817 2.586 0.99 3.241-0.173-0.654-0.566-2.649-0.739-3.304 0 0-0.126 0.032-0.126 0.032z"></path>
<path fill="#000" d="M2.253 31.578c-0.862-0.312-1.908-1.178-2.040-1.69-0.027-0.103 0.164-0.75 0.428-1.455 1.118-2.981 1.836-5.476 2.886-10.029 0.785-3.407 1.1-4.644 1.582-6.219 1.060-3.462 2.61-6.795 4.677-10.054l0.561-0.885 0.614-0.182c1.007-0.299 2.647-0.553 3.696-0.572l0.984-0.018 0.544 1.238c1.096 2.493 2.102 5.533 2.685 8.113 0.674 2.983 0.919 4.776 1.032 7.535 0.139 3.393 0.609 6.338 1.441 9.033l0.323 1.044-0.299 0.249c-0.635 0.53-2.167 1.477-3.256 2.014-1.78 0.878-4.108 1.57-5.901 1.753l-0.761 0.078-0.24-1.23c-0.317-1.628-0.575-3.677-0.711-5.662-0.124-1.809-0.070-6.258 0.095-7.733 0.268-2.393 0.828-5.533 1.303-7.305 0.1-0.373 0.173-0.684 0.163-0.692s-0.105-0.041-0.211-0.072c-0.178-0.053-0.213 0.030-0.485 1.146-0.529 2.169-0.892 4.337-1.138 6.787-0.158 1.577-0.216 5.198-0.108 6.76 0.055 0.797 0.068 1.471 0.029 1.498s-0.378 0.58-0.754 1.229c-1.759 3.038-3.057 4.62-4.252 5.181-0.733 0.344-2.138 0.412-2.889 0.141z"></path>
<path fill="#000" d="M29.304 28.831c-1.024-0.506-2.072-0.716-4.048-0.809-1.634-0.077-2.305-0.159-3.034-0.372-0.328-0.096-0.37-0.146-0.511-0.613-2.012-6.686-1.956-13.769 0.16-20.471 0.324-1.025 0.744-2.121 1.352-3.528 0.407-0.94 0.431-0.974 0.669-0.921 0.983 0.216 2.207 1.113 2.76 2.024 0.154 0.253 0.346 0.46 0.427 0.461 0.149 0.002 0.198 0.149 0.938 2.816 0.735 2.648 1.226 5.322 1.845 10.050 0.256 1.957 0.616 4.327 0.8 5.265s0.377 1.993 0.429 2.342c0.122 0.817 0.045 2.044-0.166 2.665-0.185 0.542-0.685 1.401-0.829 1.421-0.051 0.007-0.407-0.142-0.791-0.331z"></path>
<path fill="#000" d="M32.109 28.51c-0.317-1.362-0.564-2.592-0.618-3.071-0.034-0.3-0.203-1.204-0.375-2.009-0.438-2.042-0.625-3.166-1.11-6.681-0.232-1.684-0.568-3.808-0.745-4.721s-0.347-1.802-0.377-1.977c-0.030-0.175 0.13 0.152 0.355 0.726 1.051 2.681 1.891 4.417 4.742 9.805 1.028 1.943 1.473 3.049 1.734 4.316 0.216 1.045 0.341 2.515 0.254 2.971l-0.060 0.315-0.44-0.085c-0.903-0.174-2.512 0.153-3 0.609l-0.256 0.24z"></path>
<path fill="#fff" d="M22.65 9.053c0 0.276-0.229 0.499-0.512 0.499s-0.512-0.224-0.512-0.499c0-0.276 0.229-0.499 0.512-0.499s0.512 0.224 0.512 0.499z"></path>
<path fill="#fff" d="M22.138 12.548c0 0.276-0.229 0.499-0.512 0.499s-0.512-0.224-0.512-0.499c0-0.276 0.229-0.499 0.512-0.499s0.512 0.224 0.512 0.499z"></path>
<path fill="#fff" d="M21.766 15.907c0 0.276-0.229 0.499-0.512 0.499s-0.512-0.224-0.512-0.499c0-0.276 0.229-0.499 0.512-0.499s0.512 0.224 0.512 0.499z"></path>
<path fill="#fff" d="M21.859 19.448c0 0.276-0.229 0.499-0.512 0.499s-0.512-0.224-0.512-0.499c0-0.276 0.229-0.499 0.512-0.499s0.512 0.224 0.512 0.499z"></path>
<path fill="#fff" d="M22.696 22.898c0 0.276-0.229 0.499-0.512 0.499s-0.512-0.224-0.512-0.499c0-0.276 0.229-0.499 0.512-0.499s0.512 0.224 0.512 0.499z"></path>
</svg>
