<!-- Generated by IcoMoon.io -->
<svg version="1.1" xmlns="http://www.w3.org/2000/svg" width="42" height="32" viewBox="0 0 42 32">
<title>jupe_black</title>
<path d="M15.393 0.001c-0.088-0.009-0.137 0.060-0.234 0.297-0.048 0.118-0.128 0.275-0.222 0.45-1.085 0.491-5.412 5.207-10.088 11.366-1.254 1.652-2.412 3.245-3.444 4.727-0.19 0.27-0.345 0.5-0.507 0.689-0.128 0.148-0.321 0.346-0.535 0.648-0.145 0.196-0.264 0.464-0.333 0.794-0.077 0.351-0.003 0.741 0.22 1.119 0.235 0.319 0.507 0.512 0.777 0.591 0.265 0.084 0.482 0.112 0.646 0.112 0.977 0.023 1.85-0.207 2.474-0.377 0.662-0.155 1.038-0.278 1.45-0.231 0.243 0.022 0.443 0.077 0.604 0.168 0.078 0.044 0.146 0.092 0.205 0.142-0.242 0.458-0.484 0.921-0.723 1.387-0.448 0.871-0.869 1.713-1.263 2.519-0.146 0.295-0.26 0.54-0.388 0.736-0.103 0.153-0.278 0.389-0.456 0.755-0.117 0.24-0.182 0.538-0.179 0.878 0.002 0.36 0.149 0.719 0.429 1.035 0.304 0.286 0.623 0.432 0.915 0.462 0.289 0.035 0.517 0.023 0.685-0.006 0.994-0.142 1.871-0.481 2.526-0.755 0.709-0.274 1.086-0.469 1.552-0.497 0.273-0.022 0.501 0.001 0.694 0.068 0.121 0.042 0.224 0.094 0.312 0.151-0.126 0.497-0.248 0.996-0.367 1.495-0.070 0.28-0.118 0.511-0.192 0.681-0.030 0.059-0.074 0.148-0.122 0.268-0.057 0.142-0.119 0.325-0.169 0.553-0.047 0.282-0.014 0.577 0.099 0.861 0.118 0.294 0.331 0.538 0.616 0.711 0.347 0.181 0.676 0.232 0.951 0.189 0.276-0.036 0.488-0.104 0.644-0.168 0.923-0.351 1.727-0.8 2.373-1.207 0.717-0.438 1.067-0.719 1.591-0.88 0.304-0.097 0.571-0.132 0.812-0.112 0.373 0.030 0.635 0.162 0.817 0.274 0.062 0.038 0.145 0.088 0.221 0.119 0.244 0.223 1.432 0.231 2.877 0.223 0.145-0.001 0.294-0.002 0.444-0.003 1.455-0.012 2.726-0.026 3.182-0.2 0.078 0.037 0.254-0.073 0.361-0.138 0.182-0.112 0.444-0.244 0.817-0.274 0.241-0.019 0.507 0.015 0.812 0.112 0.524 0.161 0.874 0.442 1.591 0.88 0.646 0.408 1.451 0.856 2.373 1.207 0.156 0.064 0.369 0.131 0.644 0.168 0.276 0.043 0.604-0.008 0.951-0.189 0.285-0.173 0.498-0.417 0.616-0.711 0.112-0.284 0.146-0.579 0.099-0.861-0.050-0.228-0.111-0.412-0.169-0.553-0.048-0.12-0.093-0.209-0.122-0.268-0.074-0.17-0.121-0.401-0.192-0.681-0.119-0.5-0.242-0.998-0.367-1.495 0.088-0.057 0.19-0.109 0.312-0.151 0.193-0.067 0.421-0.090 0.694-0.068 0.466 0.028 0.843 0.223 1.552 0.497 0.655 0.274 1.532 0.614 2.526 0.755 0.167 0.029 0.396 0.041 0.685 0.006 0.293-0.029 0.611-0.175 0.915-0.462 0.28-0.316 0.427-0.675 0.429-1.035 0.003-0.34-0.062-0.638-0.179-0.878-0.178-0.366-0.352-0.602-0.456-0.755-0.127-0.197-0.241-0.441-0.388-0.736-0.394-0.806-0.815-1.648-1.263-2.519-0.24-0.466-0.481-0.929-0.723-1.387 0.059-0.050 0.126-0.098 0.205-0.142 0.16-0.090 0.36-0.146 0.604-0.168 0.412-0.047 0.788 0.076 1.45 0.231 0.624 0.17 1.497 0.4 2.474 0.377 0.164-0 0.381-0.028 0.646-0.112 0.27-0.079 0.541-0.271 0.777-0.591 0.224-0.377 0.298-0.767 0.22-1.119-0.069-0.33-0.189-0.597-0.333-0.794-0.214-0.303-0.406-0.501-0.535-0.648-0.162-0.189-0.317-0.419-0.507-0.689-1.033-1.482-2.191-3.076-3.444-4.727-4.204-5.537-8.119-9.898-9.657-11.081-0.146-0.252-0.273-0.481-0.359-0.66-0.133-0.274-0.189-0.329-0.304-0.296-0.932 0.266-2.279 0.433-3.753 0.508-0.705-0.008-1.345-0.019-2.146-0.022 0.027 0-0.864-0.003-0.836-0.003-0.374-0.001-0.738-0.002-1.088-0.002-0.014 0-0.023 0-0.037 0-1.459-0.094-2.799-0.275-3.746-0.548-0.014-0.004-0.028-0.007-0.040-0.008zM15.607 5.288c0.213 0 0.188 0.36-0.094 1.141-0.059-0.005-0.147 0.036-0.266 0.13-1.197 0.937-4.873 6.527-8.447 13.195-0.009-0.011-0.018-0.022-0.027-0.033-0.215-0.248-0.523-0.474-0.913-0.607-0.621-0.203-1.273-0.209-1.963-0.127-0.544 0.045-1.195 0.125-1.75 0.089 0.061-0.058 0.129-0.123 0.208-0.205 0.269-0.278 0.489-0.554 0.691-0.812 0.041-0.052 0.087-0.112 0.128-0.164 0.426-0.032 1.131-0.058 1.598-0.057 1.012 0 1.423 0.108 1.869 0.489l0.281 0.24 0.977-1.763c3.39-6.115 7.005-11.515 7.709-11.515zM26.839 5.288c0.762 0 4.746 5.986 8.131 12.215l0.579 1.065 0.281-0.241c0.447-0.382 0.857-0.49 1.87-0.49 0.377-0 0.907 0.017 1.322 0.040 0.046 0.058 0.096 0.124 0.142 0.182 0.202 0.259 0.422 0.534 0.691 0.812 0.078 0.082 0.146 0.147 0.208 0.205-0.555 0.036-1.206-0.045-1.75-0.089-0.69-0.082-1.341-0.076-1.963 0.127-0.39 0.133-0.699 0.359-0.913 0.607-0.009 0.011-0.018 0.022-0.027 0.033-3.508-6.544-7.109-12.039-8.373-13.127-0.354-0.914-0.411-1.339-0.197-1.339zM25.866 9.712c0.537 0.009 2.407 4.401 4.039 9.523 0.437 1.371 1.57 5.259 1.672 5.737l0.046 0.214 0.431-0.214c0.373-0.185 0.521-0.217 1.098-0.237 0.422-0.014 0.847 0.017 1.157 0.084 0.698 0.152 1.193 0.262 1.55 0.336 0.034 0.062 0.074 0.135 0.108 0.196 0.157 0.286 0.334 0.599 0.568 0.924 0.052 0.074 0.099 0.135 0.142 0.19-0.652-0.050-1.363-0.228-1.963-0.368-0.713-0.189-1.382-0.306-2.076-0.211-0.432 0.063-0.799 0.235-1.074 0.449-0.027 0.021-0.053 0.042-0.078 0.064-1.633-6.262-3.715-12.067-5.020-14.541-0.277-0.525-0.474-0.824-0.608-0.942-0.12-0.722-0.136-1.132-0.040-1.191 0.015-0.009 0.030-0.013 0.048-0.013zM16.61 9.712c0.015 0 0.030 0.004 0.043 0.012 0.119 0.073 0.092 0.569-0.097 1.558 0.037-0.688-0.203-0.583-0.814 0.575-1.305 2.474-3.386 8.279-5.020 14.541-0.025-0.022-0.051-0.043-0.078-0.064-0.275-0.215-0.642-0.386-1.074-0.449-0.694-0.094-1.363 0.023-2.076 0.211-0.601 0.141-1.311 0.318-1.963 0.368 0.043-0.055 0.090-0.115 0.142-0.19 0.234-0.324 0.411-0.637 0.568-0.924 0.024-0.043 0.052-0.095 0.076-0.139 0.32-0.063 0.853-0.177 1.845-0.393 0.309-0.067 0.735-0.099 1.156-0.084 0.578 0.020 0.725 0.052 1.101 0.238 0.239 0.118 0.434 0.204 0.434 0.189 0-0.238 1.471-5.205 2.129-7.186 1.521-4.582 3.146-8.273 3.627-8.264zM1.674 18.991c0.010-0.002 0.026 0.008 0.047 0.027-0.036-0.008-0.059-0.015-0.055-0.023 0.002-0.002 0.005-0.003 0.008-0.004zM40.535 18.991h0c0.003 0.001 0.005 0.002 0.008 0.004 0.004 0.008-0.019 0.015-0.055 0.023 0.021-0.018 0.037-0.029 0.047-0.027zM5.072 26.453c0.007 0 0.025 0.011 0.042 0.021-0.029-0.002-0.048-0.005-0.051-0.013 0.001-0.006 0.004-0.008 0.009-0.008zM37.136 26.453c0.005-0 0.008 0.003 0.009 0.008-0.003 0.008-0.021 0.011-0.051 0.013 0.017-0.011 0.035-0.021 0.042-0.021zM26.22 27.528c0.615-0.003 1.354 0.214 2.391 0.673 0.594 0.263 1.166 0.495 1.548 0.633 0.031 0.11 0.073 0.263 0.104 0.37 0.076 0.28 0.173 0.606 0.336 0.962 0.005 0.011 0.009 0.021 0.014 0.032-0.745-0.222-1.466-0.526-2.096-0.811-0.689-0.327-1.312-0.602-2.049-0.692-0.449-0.051-0.866 0.012-1.212 0.144-0.073 0.028-0.142 0.059-0.206 0.093-0.406 0.213-0.618 0.504-0.713 0.714-0.005 0.011-0.008 0.019-0.012 0.030-0.408-0.298-1.668-0.635-3.231-0.622-0.159 0.001-0.315 0.006-0.469 0.014-1.316 0.070-2.344 0.376-2.726 0.645-0.009-0.022-0.017-0.043-0.028-0.067-0.095-0.21-0.307-0.501-0.713-0.714-0.065-0.034-0.134-0.065-0.206-0.093-0.346-0.131-0.762-0.195-1.212-0.144-0.737 0.090-1.36 0.364-2.049 0.692-0.63 0.285-1.352 0.589-2.096 0.811 0.005-0.011 0.009-0.020 0.014-0.032 0.164-0.355 0.261-0.681 0.336-0.962 0.021-0.075 0.051-0.184 0.073-0.261 0.381-0.129 1.41-0.541 1.998-0.806 1.472-0.664 2.423-0.774 3.241-0.374 0.343 0.168 0.674 0.468 0.743 0.675 0.021 0.064 0.118 0.049 0.374-0.060 0.861-0.365 2.449-0.55 3.751-0.437 0.843 0.073 1.725 0.262 2.102 0.45 0.116 0.058 0.216 0.098 0.221 0.088 0.127-0.252 0.465-0.57 0.762-0.715 0.317-0.155 0.641-0.236 1.010-0.238zM11.18 30.284c-0.001-0.002 0.016 0.004 0.033 0.010-0.009 0-0.017 0-0.023-0.002-0.006-0.005-0.010-0.007-0.010-0.008zM31.028 30.284c-0.001 0.001-0.004 0.004-0.010 0.008-0.006 0.002-0.014 0.002-0.023 0.002 0.017-0.006 0.034-0.012 0.033-0.010z"></path>
</svg>
