<!-- Generated by IcoMoon.io -->
<svg version="1.1" xmlns="http://www.w3.org/2000/svg" width="12" height="32" viewBox="0 0 12 32">
<title>jupe_3_black</title>
<path d="M7.624 28.833c-0.434-0.74-0.491-1.162-0.305-2.251 0.29-1.699 0.033-3.429-0.872-5.871-0.144-0.388-0.417-1.133-0.607-1.655s-0.448-1.212-0.573-1.534c-0.131-0.336-0.214-0.608-0.194-0.64 0.132-0.219 0.907-1.279 1.553-2.123 0.866-1.134 1.245-1.684 1.454-2.108 0.158-0.321 0.194-0.484 0.113-0.512-0.032-0.011-0.145 0.164-0.279 0.43-0.409 0.815-0.279 0.424 0.223-0.67 0.794-1.731 1.477-3.35 1.919-4.547 0.218-0.592 0.523-1.626 0.489-1.66-0.071-0.071-0.184 0.185-0.486 1.097-0.559 1.69-1.405 3.75-2.462 6l-0.55 1.17-0.705 0.949c-0.727 0.979-1.307 1.793-1.539 2.159-0.524 0.829-0.676 1.085-0.93 1.568-0.288 0.547-0.579 1.261-0.513 1.261 0.019 0 0.112-0.158 0.207-0.352s0.176-0.348 0.182-0.342c0.006 0.006-0.030 0.358-0.080 0.783-0.072 0.617-0.089 1.012-0.084 1.964 0.008 1.437 0.005 1.454-0.541 2.746-0.207 0.49-0.43 1.042-0.495 1.225s-0.133 0.333-0.152 0.333c-0.018 0-0.066-0.049-0.105-0.109s-0.136-0.174-0.215-0.254c-0.27-0.271-0.571-1.618-0.654-2.926-0.073-1.148 0.022-3.405 0.206-4.896 0.060-0.483 0.112-1.075 0.116-1.315l0.008-0.436 0.14 0.255c0.077 0.14 0.217 0.374 0.311 0.52 0.141 0.219 0.174 0.248 0.185 0.167 0.008-0.057-0.153-0.429-0.386-0.892-0.536-1.064-0.924-2.211-1.278-3.778-0.192-0.848-0.308-1.599-0.427-2.759-0.059-0.571-0.118-1.147-0.133-1.28-0.021-0.19 0.003-0.353 0.108-0.75 0.278-1.051 0.452-1.875 0.558-2.638 0.118-0.849 0.194-1.193 0.334-1.509 0.132-0.299 0.471-0.827 0.591-0.921 0.060-0.047 0.146-0.204 0.201-0.366 0.052-0.156 0.241-0.591 0.418-0.967s0.382-0.817 0.455-0.978l0.132-0.294 0.501 0.152c1.186 0.36 1.761 0.464 3.156 0.566 1.602 0.118 2.726 0.165 3.221 0.134l0.49-0.030 0.029 0.312c0.046 0.5 0.203 1.245 0.311 1.485 0.115 0.253 0.298 0.439 0.714 0.725 0.267 0.184 0.304 0.229 0.441 0.541 0.196 0.448 0.285 0.803 0.285 1.14 0 0.224-0.032 0.345-0.171 0.656-0.334 0.745-0.474 1.389-0.367 1.692 0.040 0.111 0.004 0.845-0.101 2.089-0.037 0.437-0.088 1.112-0.114 1.501-0.126 1.897-0.328 2.907-0.992 4.968-0.245 0.761-0.393 1.367-0.334 1.367 0.017 0 0.053-0.055 0.081-0.121 0.073-0.178 0.025 0.492-0.083 1.137-0.095 0.57-0.194 0.956-0.575 2.229-0.333 1.113-0.756 2.759-0.879 3.421-0.072 0.389-0.103 0.786-0.13 1.7-0.035 1.181-0.083 1.596-0.245 2.118-0.15 0.481-0.393 1.127-0.424 1.127-0.018 0-0.086-0.090-0.15-0.199zM3.644 14.53c0.061-0.17 0.162-0.445 0.225-0.61 0.117-0.308 0.077-0.387-0.069-0.136-0.066 0.114-0.231 0.635-0.32 1.012-0.054 0.227 0.046 0.067 0.165-0.265zM4.309 13.061c0.194-0.32 1.227-1.825 1.454-2.118 0.029-0.037 0.026-0.055-0.007-0.055-0.142 0-1.727 2.356-1.727 2.566 0 0.070-0.004 0.076 0.28-0.393zM6.705 11.628c1.045-2.089 2.040-3.865 2.946-5.257 0.317-0.487 0.385-0.619 0.335-0.65-0.035-0.022-0.076-0.040-0.092-0.040-0.193-0.005-3.746 6.575-3.746 6.937 0 0.106 0.085-0.045 0.557-0.989zM2.181 11.090c1.029-0.268 1.986-0.752 2.819-1.426 0.513-0.415 2-1.86 2.671-2.594 0.333-0.364 0.782-0.854 0.997-1.089 0.381-0.414 0.451-0.522 0.339-0.522-0.029 0 0.015-0.059 0.099-0.131s0.126-0.131 0.094-0.132c-0.032-0.001-0.43 0.175-0.883 0.39-1.291 0.614-1.917 0.835-3.219 1.136-0.508 0.117-0.678 0.193-0.433 0.193 0.182 0 1.858-0.436 2.402-0.625 0.283-0.098 0.781-0.306 1.106-0.461s0.611-0.282 0.636-0.282c0.025 0-0.072 0.125-0.216 0.277s-0.479 0.525-0.745 0.828c-0.788 0.896-2.684 2.767-3.184 3.14-0.802 0.599-1.639 1.011-2.493 1.226-0.458 0.115-0.627 0.18-0.473 0.18 0.038 0 0.255-0.048 0.482-0.107zM10.994 9.452c0.163-0.457 0.369-1.248 0.422-1.623 0.022-0.157 0.017-0.166-0.073-0.138-0.053 0.016-0.103 0.035-0.111 0.042-0.015 0.013-0.448 2.137-0.449 2.203-0.002 0.088 0.045-0.018 0.211-0.483zM9.501 4.004c0.050-0.032-0.029-0.136-0.375-0.489-0.587-0.598-0.939-0.861-1.31-0.975-0.163-0.050-0.319-0.084-0.347-0.075s0.118 0.119 0.323 0.244c0.351 0.214 0.988 0.748 1.378 1.155 0.182 0.189 0.224 0.207 0.331 0.14zM6.103 3.067c-0.158-0.021-0.525-0.069-0.817-0.106-0.339-0.043-0.691-0.122-0.978-0.22-0.499-0.17-0.652-0.194-0.402-0.062 0.34 0.18 1.181 0.354 1.976 0.41 0.391 0.027 0.503 0.016 0.221-0.022zM8.772 1.904c0.363-0.062 0.669-0.122 0.681-0.133 0.092-0.092-1.48 0.087-1.643 0.187-0.062 0.038 0.104 0.097 0.214 0.076 0.049-0.009 0.385-0.068 0.748-0.129z"></path>
<path d="M4.187 31.272c0.126-0.427 0.209-0.866 0.329-1.295 0.042-0.15 0.088-0.298 0.133-0.447 0.327-1.004 0.708-1.99 1.112-2.965 0.303-0.755 0.646-1.492 0.983-2.231 0.149-0.31 0.284-0.627 0.424-0.941 0.015-0.051 0.070-0.12 0.047-0.177-0.004-0.011-0.016-0.017-0.024-0.025 0 0-0.043 0.020-0.043 0.020v0c-0.059 0.076-0.1 0.155-0.12 0.249-0.11 0.319-0.259 0.622-0.391 0.932-0.328 0.735-0.647 1.474-0.952 2.219-0.399 0.976-0.783 1.96-1.104 2.965-0.045 0.149-0.091 0.297-0.134 0.446-0.124 0.431-0.229 0.868-0.339 1.303 0 0 0.079-0.052 0.079-0.052z"></path>
<path d="M3.080 25.091c-0.075 0.573-0.137 1.148-0.202 1.722-0.086 0.763-0.152 1.529-0.216 2.294-0.031 0.425-0.080 0.849-0.151 1.27-0.026 0.145-0.059 0.289-0.102 0.429-0.013 0.037-0.023 0.074-0.038 0.11-0.029 0.083-0.072 0.159-0.096 0.244-0.013 0.047-0.018 0.097-0.030 0.144-0.013 0.054-0.028 0.107-0.043 0.16 0 0 0.005-0.003 0.005-0.003v0c0.096-0.217 0.203-0.429 0.306-0.643 0.014-0.036 0.023-0.073 0.034-0.11 0.038-0.138 0.063-0.279 0.085-0.42 0.062-0.42 0.101-0.843 0.124-1.266 0.052-0.755 0.111-1.511 0.201-2.263 0.047-0.388 0.061-0.51 0.112-0.892 0.034-0.256 0.078-0.513 0.105-0.77 0.003-0.024 0.003-0.049 0.004-0.074 0 0-0.1 0.067-0.1 0.067z"></path>
<path d="M5.22 28.209c0.124 0.175 0.198 0.38 0.265 0.582 0.030 0.091 0.053 0.184 0.083 0.275 0.030 0.089 0.065 0.175 0.097 0.263 0.032 0.075 0.064 0.149 0.096 0.224 0 0 0.004-0.004 0.004-0.004v0c-0.009-0.094-0.018-0.188-0.027-0.281-0.059-0.326-0.035-0.263-0.138-0.574-0.067-0.201-0.137-0.415-0.287-0.572 0 0-0.094 0.088-0.094 0.088z"></path>
<path d="M6.913 27.421c-0.011 0.161 0.037 0.323 0.078 0.476 0.059 0.223 0.069 0.244 0.14 0.469 0.145 0.451 0.398 0.85 0.664 1.238 0.004 0.005 0.166 0.237 0.183 0.253 0.028 0.027 0.066 0.040 0.099 0.060 0.025 0.015 0.049 0.030 0.074 0.044 0 0 0.013-0.013 0.013-0.013v0c-0.010-0.029-0.021-0.058-0.031-0.087-0.013-0.038-0.018-0.080-0.037-0.115-0.049-0.091-0.143-0.154-0.188-0.248-0.271-0.379-0.525-0.775-0.672-1.221-0.067-0.213-0.083-0.251-0.137-0.463-0.040-0.153-0.083-0.312-0.074-0.471 0 0-0.112 0.077-0.112 0.077z"></path>
<path d="M7.946 30.081c0.062 0.307 0.081 0.623 0.155 0.928 0.019 0.077 0.046 0.151 0.070 0.227 0 0 0.004-0.004 0.004-0.004v0c-0-0.097 0.003-0.193-0.001-0.29-0.009-0.192-0.034-0.363-0.060-0.553-0.012-0.085-0.034-0.244-0.053-0.338-0.004-0.021-0.011-0.042-0.016-0.063 0 0-0.098 0.092-0.098 0.092z"></path>
<path d="M5.674 29.331c-0.001 0.246 0.031 0.492 0.063 0.736 0.018 0.121 0.037 0.243 0.083 0.357 0.039 0.097 0.094 0.185 0.149 0.273 0.154 0.208 0.147 0.382 0.143 0.634 0.033 0.21 0.024 0.105 0.028 0.316 0 0 0.006-0.005 0.006-0.005v0c0.043-0.262 0.018-0.125 0.078-0.411 0.003-0.145 0.016-0.297-0.027-0.439-0.023-0.076-0.073-0.137-0.117-0.202-0.132-0.2-0.204-0.372-0.233-0.613-0.033-0.241-0.059-0.483-0.073-0.726 0 0-0.1 0.080-0.1 0.080z"></path>
<path d="M2.786 0c-0.084 0.162-0.161 0.326-0.238 0.49-0.102 0.23-0.213 0.456-0.331 0.679-0.091 0.161-0.176 0.324-0.259 0.488-0.055 0.107-0.104 0.217-0.151 0.327-0.048 0.114-0.097 0.227-0.136 0.344-0.027 0.083-0.048 0.168-0.077 0.251-0.017 0.051 0.029 0.063 0.072 0.085 0 0 0.060 0.013 0.060 0.013v0c0.052-0.002 0.101 0.006 0.118-0.047 0.024-0.081 0.049-0.163 0.072-0.244 0.037-0.116 0.081-0.231 0.133-0.343 0.048-0.107 0.095-0.214 0.139-0.322 0.077-0.168 0.163-0.332 0.243-0.499 0.109-0.222 0.214-0.446 0.311-0.673 0.072-0.166 0.138-0.335 0.218-0.498 0 0-0.175-0.052-0.175-0.052z"></path>
<path d="M1.636 2.622c-0.109 0.082-0.192 0.193-0.272 0.302-0.157 0.221-0.281 0.462-0.391 0.71-0.138 0.304-0.204 0.631-0.262 0.957-0.046 0.301-0.080 0.605-0.117 0.908-0.041 0.343-0.111 0.68-0.191 1.015-0.071 0.29-0.14 0.58-0.205 0.871-0.046 0.202-0.099 0.403-0.155 0.603-0.019 0.062-0.034 0.125-0.041 0.189-0.006 0.044 0.043 0.021 0.071 0.016 0 0 0.037-0.014 0.037-0.014v0c0.031-0.018 0.075-0.029 0.075-0.071 0.004-0.063 0.014-0.124 0.030-0.185 0.050-0.195 0.11-0.388 0.153-0.585 0.069-0.285 0.134-0.571 0.205-0.855 0.080-0.331 0.157-0.663 0.192-1.003 0.040-0.291 0.078-0.583 0.114-0.874 0.053-0.32 0.115-0.64 0.25-0.936 0.109-0.239 0.231-0.471 0.38-0.687 0.073-0.109 0.151-0.213 0.251-0.299 0 0-0.124-0.062-0.124-0.062z"></path>
<path d="M2.786 0.048c0.112 0.036 0.224 0.072 0.337 0.103 0.191 0.056 0.381 0.116 0.572 0.175 0.351 0.109 0.707 0.204 1.066 0.281 0.449 0.090 0.905 0.138 1.36 0.181 0.496 0.046 0.993 0.070 1.489 0.104 0.434 0.030 0.869 0.050 1.305 0.069 0.382 0.022 0.765 0.007 1.147-0.011 0.133-0.012 0.266-0.020 0.398-0.032 0.070-0.008-0.051-0.054-0.052-0.055 0 0-0.040-0.018-0.040-0.018v0c-0.038-0.016-0.081-0.045-0.124-0.042-0.122 0.030-0.246 0.046-0.372 0.056-0.374 0.035-0.75 0.037-1.126 0.019-0.432-0.015-0.864-0.033-1.296-0.060-0.492-0.029-0.983-0.065-1.474-0.102-0.456-0.043-0.914-0.090-1.364-0.179-0.252-0.055-0.503-0.106-0.747-0.19-0.19-0.059-0.378-0.124-0.569-0.181-0.112-0.039-0.224-0.077-0.337-0.114 0 0-0.175-0.004-0.175-0.004z"></path>
<path d="M10.339 0.802c-0.009 0.245 0.033 0.489 0.070 0.73 0.051 0.313 0.101 0.627 0.172 0.937 0.059 0.225 0.164 0.436 0.325 0.605 0.031 0.033 0.066 0.062 0.098 0.093 0.175 0.138 0.355 0.275 0.551 0.384 0.114 0.039 0.063 0.020 0.155 0.055 0 0 0.048 0.002 0.048 0.002v0c-0.004-0.030-0.003-0.014-0.001-0.049-0.181-0.135-0.389-0.23-0.559-0.381-0.033-0.030-0.068-0.059-0.099-0.091-0.163-0.165-0.274-0.368-0.337-0.59-0.079-0.309-0.132-0.624-0.192-0.938-0.044-0.244-0.080-0.489-0.107-0.736 0 0-0.122-0.022-0.122-0.022z"></path>
<path d="M11.631 3.551c0.106 0.192 0.189 0.394 0.275 0.595 0.101 0.239 0.177 0.486 0.221 0.741 0.018 0.167 0.036 0.341 0.001 0.507-0.007 0.032-0.017 0.063-0.026 0.094-0.063 0.183-0.159 0.352-0.241 0.527-0.089 0.207-0.159 0.424-0.206 0.645 0.014 0.033 0.027 0.066 0.041 0.098 0 0 0.024-0.012 0.024-0.012v0c0.035-0.058 0.069-0.115 0.104-0.173 0.073-0.216 0.139-0.435 0.232-0.644 0.085-0.171 0.177-0.34 0.24-0.521 0.021-0.080 0.031-0.104 0.036-0.185 0.008-0.134-0.012-0.269-0.027-0.401-0.049-0.253-0.14-0.494-0.247-0.729-0.087-0.197-0.177-0.393-0.28-0.582 0 0-0.147 0.039-0.147 0.039z"></path>
<path d="M11.59 6.747c-0.020 0.123-0.020 0.248-0.021 0.372-0.001 0.063-0.004 0.125-0.001 0.188 0.002 0.059 0.001 0.119 0.015 0.177 0.012 0.048 0.041 0.089 0.062 0.133 0 0 0.005-0.002 0.005-0.002v0c0.020-0.061 0.046-0.12 0.059-0.183 0.012-0.060 0.012-0.122 0.014-0.183 0.008-0.184 0.003-0.369 0.013-0.553 0 0-0.146 0.051-0.146 0.051z"></path>
<path d="M8.139 12.147c-0.109 0.243-0.222 0.482-0.346 0.718-0.363 0.653-0.827 1.242-1.272 1.84-0.436 0.579-0.867 1.162-1.28 1.757-0.286 0.412-0.363 0.536-0.635 0.952-0.27 0.423-0.523 0.856-0.754 1.301-0.114 0.22-0.242 0.476-0.335 0.708-0.035 0.086-0.061 0.176-0.092 0.263-0.022 0.067-0.044 0.134-0.067 0.202 0 0 0.006-0.001 0.006-0.001v0c0.034-0.068 0.069-0.137 0.103-0.205 0.047-0.089 0.096-0.178 0.141-0.268 0.139-0.276 0.198-0.422 0.342-0.704 0.226-0.443 0.477-0.872 0.74-1.293 0.102-0.157 0.201-0.315 0.305-0.47 0.511-0.763 1.064-1.497 1.624-2.224 0.242-0.317 0.309-0.403 0.545-0.716 0.268-0.357 0.537-0.715 0.756-1.105 0.125-0.227 0.26-0.458 0.328-0.71 0 0-0.108-0.044-0.108-0.044z"></path>
<path d="M11.645 7.434c-0.027 0.191-0.034 0.384-0.045 0.576-0.011 0.336-0.036 0.672-0.063 1.007-0.039 0.42-0.078 0.841-0.109 1.262-0.033 0.512-0.063 1.025-0.102 1.537-0.047 0.626-0.152 1.246-0.274 1.861-0.149 0.734-0.368 1.45-0.594 2.162-0.092 0.295-0.194 0.587-0.283 0.883-0.026 0.085-0.053 0.169-0.073 0.255-0.030 0.124-0.057 0.312-0.077 0.441 0 0 0.006-0.002 0.006-0.002v0c0.041-0.104 0.144-0.367 0.178-0.468 0.029-0.085 0.052-0.171 0.078-0.256 0.089-0.293 0.178-0.587 0.269-0.879 0.22-0.715 0.444-1.43 0.601-2.162 0.12-0.611 0.228-1.225 0.278-1.847 0.041-0.505 0.074-1.011 0.108-1.517 0.031-0.421 0.071-0.841 0.11-1.261 0.030-0.334 0.060-0.669 0.066-1.005 0.005-0.2 0.019-0.399 0.021-0.599 0 0-0.093 0.012-0.093 0.012z"></path>
<path d="M10.171 16.767c0.009 0.2 0.008 0.401 0.003 0.601-0.021 0.505-0.1 1.003-0.197 1.498-0.171 0.757-0.41 1.497-0.631 2.24-0.236 0.797-0.449 1.6-0.633 2.411-0.107 0.485-0.197 0.973-0.241 1.468-0.019 0.297-0.002 0.595 0.005 0.893 0.007 0.289-0.012 0.577-0.037 0.864-0.024 0.334-0.086 0.662-0.169 0.986-0.131 0.492-0.314 0.967-0.495 1.442-0.020 0.071-0.041 0.143-0.061 0.214 0 0 0.005-0.002 0.005-0.002v0c0.045-0.082 0.090-0.163 0.135-0.245 0.208-0.474 0.391-0.96 0.531-1.459 0.085-0.323 0.152-0.649 0.174-0.983 0.025-0.286 0.048-0.573 0.042-0.861-0.013-0.295-0.033-0.591-0.013-0.887 0.036-0.489 0.11-0.974 0.213-1.454 0.174-0.811 0.385-1.612 0.621-2.407 0.223-0.743 0.467-1.48 0.646-2.235 0.101-0.493 0.183-0.991 0.206-1.494 0.009-0.201 0.014-0.401 0.005-0.602 0 0-0.109 0.012-0.109 0.012z"></path>
<path d="M4.862 16.942c0.081 0.176 0.155 0.355 0.229 0.534 0.158 0.378 0.297 0.763 0.44 1.147 0.182 0.5 0.362 1 0.552 1.497 0.176 0.451 0.338 0.907 0.492 1.366 0.142 0.429 0.269 0.862 0.379 1.3 0.078 0.327 0.136 0.658 0.197 0.988 0.072 0.406 0.124 0.816 0.149 1.227 0.018 0.305-0.002 0.61-0.029 0.913-0.026 0.256-0.072 0.509-0.124 0.761-0.035 0.159-0.058 0.319-0.076 0.481-0.019 0.203-0.026 0.406-0.014 0.61 0.019 0.298 0.138 0.571 0.262 0.837 0.094 0.195 0.204 0.381 0.319 0.564 0.025 0.040 0.047 0.082 0.077 0.119 0.028 0.035 0.063 0.063 0.094 0.095 0.029 0.024 0.058 0.048 0.087 0.072 0 0 0.019-0.009 0.019-0.009v0c-0.010-0.033-0.020-0.066-0.030-0.099-0.015-0.039-0.027-0.080-0.046-0.118-0.023-0.044-0.053-0.083-0.080-0.125-0.115-0.182-0.225-0.368-0.319-0.562-0.124-0.266-0.238-0.539-0.253-0.836-0.012-0.2-0.004-0.4 0.022-0.599 0.020-0.162 0.047-0.322 0.076-0.483 0.045-0.249 0.094-0.497 0.122-0.749 0.029-0.304 0.040-0.61 0.019-0.915-0.029-0.412-0.083-0.822-0.147-1.229-0.056-0.33-0.122-0.658-0.202-0.982-0.114-0.436-0.247-0.867-0.386-1.296-0.152-0.46-0.32-0.914-0.498-1.365-0.192-0.495-0.373-0.993-0.548-1.495-0.139-0.384-0.278-0.768-0.432-1.147-0.071-0.179-0.137-0.364-0.236-0.529 0 0-0.113 0.026-0.113 0.026z"></path>
<path d="M3.791 18.866c-0.010 0.367-0.053 0.732-0.094 1.097-0.042 0.367-0.093 0.733-0.109 1.102-0.010 0.223-0.006 0.311-0.003 0.536 0.010 0.444 0.056 0.888 0.028 1.332-0.005 0.077-0.015 0.154-0.022 0.231-0.060 0.456-0.243 0.879-0.425 1.296-0.212 0.472-0.403 0.954-0.59 1.436-0.057 0.153-0.115 0.305-0.168 0.459-0.013 0.038-0.049 0.131-0.042 0.179 0.002 0.017 0.017 0.030 0.026 0.045 0 0 0.023-0.011 0.023-0.011v0c0.020-0.029 0.043-0.057 0.060-0.088 0.033-0.060 0.048-0.128 0.067-0.193 0.047-0.154 0.1-0.306 0.154-0.457 0.177-0.484 0.378-0.959 0.589-1.429 0.181-0.419 0.369-0.843 0.421-1.301 0.018-0.218 0.026-0.253 0.025-0.475-0.001-0.361-0.038-0.721-0.044-1.081-0.002-0.232-0.006-0.304 0.004-0.533 0.016-0.368 0.063-0.733 0.11-1.098 0.048-0.363 0.101-0.729 0.098-1.095 0 0-0.108 0.050-0.108 0.050z"></path>
<path d="M0.015 8.183c0.001 0.188 0.012 0.375 0.031 0.561 0.039 0.334 0.074 0.668 0.103 1.003 0.029 0.357 0.061 0.713 0.106 1.068 0.040 0.314 0.092 0.626 0.144 0.938 0.049 0.301 0.111 0.599 0.177 0.897 0.063 0.285 0.134 0.568 0.206 0.851 0.058 0.224 0.116 0.448 0.18 0.67 0.053 0.182 0.113 0.361 0.17 0.541 0.044 0.144 0.092 0.287 0.139 0.43 0.043 0.132 0.091 0.262 0.14 0.392 0.050 0.132 0.108 0.261 0.166 0.39 0.029 0.067 0.061 0.133 0.090 0.201 0.006 0.011 0.008 0.024 0.014 0.035 0.003 0.007 0.009 0.012 0.013 0.018 0.081 0.129 0.155 0.262 0.23 0.395 0.12 0.194 0.204 0.413 0.346 0.594 0.036 0.046 0.079 0.086 0.119 0.128 0 0 0.007-0.003 0.007-0.003v0c-0.014-0.055-0.024-0.111-0.043-0.164-0.074-0.214-0.209-0.402-0.305-0.606-0.071-0.137-0.141-0.275-0.212-0.411-0.009-0.014-0.007-0.009-0.008-0.015-0.003-0.013-0.011-0.024-0.017-0.037-0.034-0.063-0.066-0.128-0.096-0.193-0.059-0.128-0.119-0.256-0.168-0.389-0.049-0.13-0.097-0.26-0.141-0.391-0.048-0.143-0.096-0.286-0.141-0.429-0.059-0.178-0.119-0.356-0.171-0.536-0.064-0.221-0.127-0.442-0.185-0.665-0.074-0.283-0.146-0.566-0.208-0.851-0.065-0.296-0.131-0.591-0.182-0.89-0.050-0.308-0.099-0.617-0.144-0.926-0.045-0.35-0.079-0.701-0.11-1.053-0.030-0.332-0.060-0.663-0.103-0.993-0.020-0.188-0.043-0.375-0.053-0.564 0 0-0.094 0.004-0.094 0.004z"></path>
<path d="M1.603 15.97c-0 0.238 0.018 0.476 0.022 0.714 0 0.408-0.055 0.813-0.11 1.216-0.065 0.444-0.109 0.889-0.144 1.336-0.027 0.43-0.050 0.86-0.071 1.29-0.021 0.365-0.036 0.73-0.041 1.096-0.012 0.425 0.002 0.849 0.031 1.273 0.042 0.547 0.12 1.089 0.22 1.628 0.083 0.417 0.195 0.827 0.33 1.23 0.021 0.045 0.042 0.090 0.062 0.135 0 0 0.031-0.019 0.031-0.019v0c-0.011-0.051-0.022-0.101-0.033-0.152-0.12-0.409-0.24-0.82-0.324-1.238-0.101-0.544-0.177-1.093-0.193-1.646-0.011-0.425-0.014-0.85-0.007-1.275 0.009-0.369 0.018-0.738 0.034-1.107 0.019-0.428 0.034-0.856 0.071-1.282 0.038-0.443 0.088-0.884 0.151-1.325 0.052-0.403 0.108-0.808 0.104-1.215-0.003-0.157-0.007-0.313-0.021-0.469-0.004-0.046-0.012-0.133-0.023-0.183-0.003-0.014-0.009-0.027-0.014-0.041 0 0-0.076 0.034-0.076 0.034z"></path>
<path d="M1.903 25.872c0.088 0.141 0.198 0.267 0.302 0.397 0.044 0.053 0.085 0.108 0.128 0.161 0.019 0.023 0.032 0.052 0.057 0.069 0.027 0.018 0.062 0.020 0.093 0.030 0 0 0.019-0.012 0.019-0.012v0c-0-0.028 0.009-0.057-0.001-0.083-0.010-0.027-0.037-0.045-0.056-0.067-0.016-0.019-0.121-0.141-0.135-0.158-0.106-0.127-0.206-0.258-0.302-0.393 0 0-0.105 0.056-0.105 0.056z"></path>
<path d="M3.825 31.871c0.021 0.085 0.005 0.042 0.054 0.129 0 0 0.019-0.014 0.019-0.014v0c0.033-0.144 0.023-0.078 0.036-0.198 0 0-0.109 0.083-0.109 0.083z"></path>
</svg>
