<!-- Generated by IcoMoon.io -->
<svg version="1.1" xmlns="http://www.w3.org/2000/svg" width="28" height="32" viewBox="0 0 28 32">
<title>manteau_veste_black</title>
<path d="M11.393 0c-0.342 0.004-0.669 0.083-0.957 0.216-0.477 0.221-0.823 0.577-1.034 0.955-0.088 0.158-0.151 0.318-0.194 0.474-0.133 0.016-0.263 0.039-0.387 0.071-0.447 0.11-0.844 0.275-1.202 0.425-1.276 0.526-2.555 1.001-3.79 1.521-0.199 0.080-0.357 0.152-0.487 0.171-0.033 0.005-0.1 0.015-0.2 0.040-0.104 0.020-0.227 0.081-0.361 0.19-0.161 0.165-0.246 0.335-0.261 0.491-0.020 0.148-0.018 0.258-0.011 0.329 0.646 11.744-1.645 20.376-2.292 23.213-0.053 0.231-0.091 0.41-0.123 0.565-0.064 0.034-0.097 0.066-0.095 0.087 0.002 0.017 0.028 0.027 0.070 0.035-0.041 0.215-0.055 0.34-0.032 0.347s0.087-0.112 0.177-0.327c0.36 0.037 1.134 0.101 2.005 0.673 0.53 0.347 1.080 0.922 1.372 1.703 0.036 0.108 0.093 0.263 0.21 0.442 0.059 0.088 0.143 0.173 0.252 0.248s0.246 0.123 0.405 0.133c0.157 0.003 0.301-0.034 0.421-0.105 0.117-0.069 0.211-0.153 0.281-0.246 0.129-0.177 0.204-0.363 0.232-0.54 0.030-0.17 0.038-0.32 0.042-0.448 0.006-0.138 0.013-0.28 0.019-0.42 0.667 0.551 1.437 1.004 2.29 1.302 1.121 0.392 2.38 0.501 3.605 0.229 0.189-0.040 0.401-0.101 0.625-0.207 0.226-0.105 0.444-0.278 0.62-0.524 0.187-0.309 0.26-0.594 0.289-0.81 0.858-4.502 1.143-9.314 0.786-14.367-0.317-4.49-1.114-8.785-2.189-12.755-0.038-0.148-0.088-0.322-0.171-0.514-0.081-0.196-0.216-0.395-0.414-0.572-0.206-0.165-0.419-0.263-0.613-0.312-0.055-0.014-0.109-0.020-0.164-0.031 0.008-0.011 0.017-0.022 0.025-0.033 0.164-0.207 0.405-0.39 0.685-0.483 0.244-0.082 0.534-0.099 0.801-0.027 0.283 0.062 0.562 0.254 0.978 0.464 0.37 0.213 0.87 0.405 1.475 0.384 0.004-0 0.007-0 0.011-0 0.453-0.050 0.818-0.211 1.098-0.375 0.303-0.161 0.518-0.306 0.723-0.369 0.289-0.101 0.618-0.093 0.889-0 0.266 0.089 0.496 0.264 0.659 0.467-0.007 0.002-0.014 0.003-0.021 0.005-0.195 0.049-0.407 0.147-0.613 0.312-0.198 0.177-0.333 0.376-0.414 0.572-0.082 0.192-0.132 0.366-0.171 0.514-1.075 3.97-1.872 8.265-2.189 12.755-0.357 5.053-0.071 9.865 0.786 14.367 0.029 0.216 0.102 0.501 0.289 0.81 0.175 0.247 0.393 0.42 0.62 0.524 0.223 0.106 0.436 0.168 0.625 0.207 1.225 0.272 2.484 0.164 3.605-0.229 0.853-0.299 1.624-0.752 2.29-1.302 0.006 0.14 0.014 0.282 0.019 0.42 0.004 0.128 0.011 0.277 0.042 0.448 0.029 0.176 0.103 0.363 0.232 0.54 0.069 0.093 0.164 0.177 0.281 0.246 0.12 0.071 0.264 0.107 0.421 0.105 0.159-0.010 0.296-0.057 0.405-0.133s0.192-0.16 0.252-0.248c0.117-0.179 0.174-0.335 0.21-0.442 0.293-0.782 0.843-1.356 1.372-1.703 0.871-0.572 1.645-0.635 2.005-0.673 0.090 0.215 0.153 0.335 0.177 0.327s0.009-0.132-0.032-0.347c0.042-0.008 0.068-0.019 0.070-0.035 0.003-0.021-0.030-0.053-0.095-0.087-0.031-0.155-0.070-0.334-0.123-0.565-0.647-2.837-2.937-11.468-2.292-23.213 0.007-0.071 0.009-0.181-0.011-0.329-0.015-0.155-0.1-0.326-0.261-0.491-0.134-0.108-0.257-0.169-0.361-0.19-0.1-0.024-0.167-0.034-0.2-0.040-0.131-0.019-0.288-0.091-0.487-0.171-1.236-0.52-2.514-0.995-3.79-1.521-0.359-0.15-0.756-0.315-1.203-0.425-0.143-0.036-0.292-0.063-0.445-0.079-0.029-0.089-0.063-0.179-0.106-0.269-0.212-0.449-0.597-0.871-1.144-1.117-0.483-0.215-1.064-0.276-1.633-0.112-0.381 0.118-0.678 0.284-0.942 0.426-0.251 0.119-0.466 0.229-0.634 0.229-0.001 0-0.003 0-0.004 0.001-0.221 0.040-0.523-0.102-0.855-0.244-0.363-0.184-0.76-0.397-1.272-0.508-0.16-0.030-0.319-0.044-0.475-0.042zM9.79 2.767c0.063 0.009 0.124 0.020 0.181 0.039 0.093 0.033 0.163 0.058 0.186 0.087 0.032 0.019 0.064 0.082 0.106 0.163 0.040 0.085 0.069 0.204 0.109 0.349 1.027 3.916 1.794 8.14 2.107 12.543 0.352 4.957 0.094 9.665-0.712 14.073-0.049 0.203-0.062 0.346-0.111 0.389-0.021 0.046-0.092 0.093-0.18 0.144-0.092 0.050-0.221 0.084-0.374 0.123-0.995 0.236-2.054 0.153-3.002-0.163-0.983-0.327-1.863-0.915-2.57-1.63 0.012-0.2 0.025-0.402 0.039-0.606 1.101-1.791 2.069-3.328 2.937-5.064 1.030-2.054 1.678-4.007 1.898-5.925 0.382-3.392-0.639-6.071-1.541-7.688-0.885-1.587-1.644-2.265-1.724-2.246 0.079-0.103 0.833 0.744 1.31 1.487 1.455 2.265 2.155 4.814 2.045 7.45-0.127 3.065-1.119 5.765-3.69 10.044-0.629 1.047-1.165 2.052-1.192 2.233-0.044 0.302-0.002 0.366 0.51 0.774 1.053 0.838 2.589 1.431 3.707 1.431 0.749 0 1.529-0.18 1.707-0.394 0.099-0.12 0.244-0.724 0.376-1.573 1.13-7.255 0.797-14.927-0.995-22.904-0.577-2.571-0.677-3.039-1.127-3.085-0.001-0.017-0.001-0.035-0.001-0.052zM18.505 2.789c0.047 0.008 0.094 0.016 0.141 0.026 0.327 0.072 0.671 0.216 1.039 0.361 1.306 0.523 2.586 0.983 3.801 1.476 0.185 0.079 0.408 0.165 0.676 0.22-0.484 11.9 2.122 20.545 3.103 23.293 0.056 0.158 0.108 0.296 0.154 0.416-0.411-0.114-1.209-0.151-2.22 0.359-0.67 0.339-1.397 0.965-1.831 1.918-0.046 0.094-0.076 0.171-0.105 0.219-0.011-0.030-0.019-0.072-0.029-0.123-0.013-0.078-0.009-0.179-0.010-0.308 0.002-0.438-0.002-0.889-0.012-1.351 0.029-0.043 0.057-0.090 0.085-0.14 0.118-0.202 0.159-0.469 0.091-0.767-0.055-0.162-0.115-0.269-0.16-0.33-0.021-0.034-0.040-0.063-0.062-0.097-0.065-1.41-0.188-2.913-0.389-4.491-0.498-3.92-1.338-7.247-2.142-9.722-0.674-2.076-1.267-3.419-1.512-3.732 0.034-0.076 0.069-0.153 0.103-0.226 0.731-1.561 1.364-2.321 1.364-2.42 0.001 0.004 0.004 0.006 0.004 0.012 0 0.065-0.151 0.355-0.336 0.645s-0.5 0.852-0.701 1.251l-0.364 0.725 0.239 0.474c0.881 1.745 2.099 5.804 2.795 9.314 0.436 2.199 0.964 6.426 0.964 7.712 0 0.214 0.073 0.529 0.162 0.701 0.138 0.266 0.144 0.388 0.042 0.819-0.066 0.279-0.105 0.79-0.087 1.137l0.033 0.63 0.191-0.356c0.288-0.538 1.186-1.333 1.831-1.621 0.353-0.158 0.835-0.277 1.249-0.308 0.371-0.028 0.674-0.060 0.674-0.072s-0.176-0.563-0.391-1.226c-0.813-2.503-1.667-6.277-2.097-9.265-0.507-3.528-0.708-6.418-0.708-10.18v-2.823l-2.649-1.030c-1.34-0.521-2.494-0.925-2.957-1.040 0.007-0.026 0.014-0.052 0.020-0.079zM9.215 2.792c0.008 0.029 0.017 0.057 0.026 0.083-0.433 0.1-1.576 0.496-2.957 1.033l-2.649 1.030v2.823c0 3.763-0.201 6.653-0.708 10.18-0.429 2.987-1.284 6.762-2.097 9.265-0.215 0.663-0.391 1.214-0.391 1.226s0.303 0.044 0.674 0.072c0.414 0.031 0.896 0.15 1.249 0.308 0.645 0.289 1.543 1.083 1.831 1.621l0.191 0.356 0.033-0.63c0.018-0.347-0.021-0.858-0.087-1.137-0.102-0.432-0.095-0.553 0.042-0.819 0.089-0.172 0.162-0.487 0.162-0.701 0-1.286 0.529-5.513 0.964-7.712 0.696-3.51 1.913-7.569 2.795-9.314l0.239-0.474-0.364-0.725c-0.2-0.399-0.516-0.961-0.701-1.251s-0.336-0.579-0.336-0.644c0-0.006 0.003-0.007 0.004-0.012 0 0.099 0.632 0.859 1.364 2.42 0.034 0.073 0.068 0.149 0.103 0.226-0.246 0.313-0.838 1.656-1.512 3.732-0.804 2.475-1.643 5.802-2.142 9.722-0.201 1.578-0.324 3.081-0.389 4.491-0.021 0.033-0.040 0.063-0.062 0.097-0.045 0.061-0.105 0.169-0.16 0.33-0.068 0.298-0.027 0.566 0.091 0.767 0.028 0.050 0.056 0.097 0.085 0.14-0.010 0.462-0.014 0.913-0.012 1.351-0.001 0.129 0.002 0.231-0.010 0.308-0.010 0.051-0.019 0.093-0.029 0.123-0.028-0.048-0.059-0.125-0.105-0.219-0.434-0.954-1.16-1.58-1.831-1.918-1.012-0.51-1.809-0.472-2.22-0.359 0.046-0.12 0.097-0.258 0.154-0.416 0.982-2.747 3.587-11.392 3.103-23.293 0.268-0.055 0.491-0.141 0.676-0.22 1.215-0.493 2.495-0.953 3.801-1.476 0.369-0.146 0.712-0.29 1.039-0.361 0.045-0.009 0.090-0.015 0.135-0.023zM17.796 2.795c-0.001 0.020-0.002 0.040-0.004 0.059-0.337 0.146-0.474 0.774-0.985 3.050-1.791 7.978-2.124 15.649-0.995 22.904 0.132 0.849 0.277 1.454 0.376 1.573 0.178 0.214 0.958 0.394 1.707 0.394 1.119 0 2.655-0.593 3.707-1.431 0.512-0.408 0.555-0.472 0.51-0.774-0.027-0.181-0.563-1.186-1.192-2.233-2.571-4.279-3.563-6.979-3.69-10.044-0.11-2.636 0.59-5.185 2.045-7.45 0.477-0.743 1.231-1.59 1.31-1.487-0.080-0.019-0.84 0.659-1.724 2.246-0.901 1.617-1.923 4.296-1.541 7.688 0.22 1.918 0.868 3.87 1.898 5.925 0.868 1.736 1.836 3.274 2.937 5.064 0.014 0.204 0.027 0.406 0.039 0.606-0.707 0.714-1.587 1.302-2.57 1.63-0.948 0.316-2.007 0.399-3.002 0.163-0.152-0.039-0.282-0.072-0.374-0.123-0.088-0.051-0.159-0.098-0.18-0.144-0.049-0.043-0.062-0.186-0.111-0.389-0.806-4.408-1.064-9.117-0.712-14.073 0.313-4.403 1.080-8.627 2.107-12.543 0.040-0.145 0.069-0.264 0.109-0.349 0.042-0.082 0.074-0.144 0.106-0.163 0.023-0.030 0.093-0.054 0.186-0.087 0.013-0.004 0.028-0.007 0.041-0.011zM8.702 10.247c0.698 1.636 1.369 4.054 0.949 6.946-0.258 1.803-0.927 3.631-1.961 5.603-0.597 1.136-1.236 2.18-1.94 3.291 0.077-0.802 0.167-1.627 0.275-2.481 0.494-3.89 1.192-7.115 1.803-9.65 0.442-1.836 0.788-3.146 0.874-3.708zM19.023 10.247c0.086 0.562 0.432 1.872 0.874 3.708 0.611 2.535 1.308 5.761 1.803 9.65 0.109 0.854 0.199 1.68 0.275 2.481-0.703-1.111-1.343-2.155-1.94-3.291-1.034-1.971-1.703-3.8-1.961-5.603-0.42-2.892 0.251-5.31 0.949-6.946z"></path>
</svg>
