<!-- Generated by IcoMoon.io -->
<svg version="1.1" xmlns="http://www.w3.org/2000/svg" width="26" height="32" viewBox="0 0 26 32">
<title>sac_black</title>
<path fill="#000" d="M6.152 11.498c-0.004-0.286 3.204-0.56 7.159-0.611s7.169 0.14 7.173 0.426c0.004 0.286-3.204 0.56-7.159 0.611s-7.169-0.14-7.173-0.426z"></path>
<path fill="#000" d="M6.254 11.503c0.12 0.077-0.35 1.011-1.071 2.517-0.748 1.563-1.649 3.539-2.509 5.989-0.031 0.087-0.061 0.174-0.091 0.261-0.825 2.39-1.336 4.439-1.715 6.071-0.366 1.575-0.577 2.56-0.717 2.545-0.267-0.028-0.204-4.103 1.452-8.952 0.030-0.089 0.061-0.179 0.093-0.268 0.873-2.487 1.928-4.528 2.845-5.999 0.9-1.443 1.593-2.241 1.713-2.164z"></path>
<path fill="#000" d="M26.352 28.791c0.14-0.015 0.182-1.033-0.005-2.668-0.19-1.665-0.618-3.855-1.447-6.284-0.030-0.089-0.061-0.179-0.093-0.268-0.873-2.487-1.928-4.528-2.845-5.999-0.9-1.443-1.593-2.241-1.713-2.164s0.35 1.011 1.071 2.517c0.748 1.563 1.649 3.539 2.509 5.989 0.031 0.087 0.061 0.174 0.091 0.261 0.825 2.39 1.336 4.439 1.715 6.071 0.366 1.575 0.577 2.56 0.717 2.545z"></path>
<path fill="#000" d="M26.352 28.791c-0.001 0.286-5.905 0.498-13.178 0.472s-13.175-0.278-13.174-0.565c0.001-0.286 5.905-0.498 13.178-0.472s13.175 0.278 13.174 0.565z"></path>
<path fill="#000" d="M9.943 11.313c-0.046 0.068-0.599-0.145-1.317-0.882-0.691-0.709-1.605-2.071-1.673-3.944 0 0 0 0 0 0-0.059-1.754 0.707-3.917 2.607-5.292 1.048-0.755 2.378-1.211 3.78-1.194 0.016 0 0.033 0.001 0.049 0.001 1.383 0.029 2.683 0.517 3.699 1.294 1.877 1.443 2.565 3.663 2.422 5.428-0.158 1.884-1.161 3.206-1.899 3.878-0.768 0.699-1.339 0.876-1.381 0.805s0.436-0.383 1.050-1.123c0.59-0.71 1.376-1.981 1.418-3.607 0.045-1.516-0.633-3.414-2.216-4.578-0.859-0.635-1.963-1.038-3.115-1.061-0.014-0-0.027-0-0.041-0.001-1.167-0.016-2.298 0.36-3.186 0.977-1.606 1.11-2.351 2.958-2.378 4.465 0 0 0 0 0 0-0.035 1.615 0.669 2.916 1.211 3.656 0.564 0.769 1.015 1.11 0.969 1.178z"></path>
<path fill="#000" d="M10.419 11.049c-0.040 0.060-0.53-0.123-1.168-0.768-0.614-0.621-1.428-1.82-1.488-3.472 0 0 0 0 0 0-0.051-1.548 0.635-3.458 2.325-4.652 0.908-0.639 2.050-1.022 3.251-1.007 0.014 0 0.027 0 0.041 0.001 1.186 0.025 2.303 0.436 3.183 1.094 1.669 1.255 2.287 3.213 2.163 4.77-0.138 1.662-1.027 2.826-1.68 3.414-0.68 0.612-1.186 0.765-1.222 0.702s0.388-0.335 0.932-0.983c0.523-0.623 1.221-1.741 1.256-3.173 0.038-1.335-0.569-3.007-1.974-4.018-0.743-0.538-1.69-0.876-2.677-0.896-0.011-0-0.023-0-0.034-0.001-0.999-0.014-1.969 0.301-2.736 0.822-1.425 0.962-2.090 2.592-2.115 3.919 0 0 0 0 0 0-0.031 1.423 0.597 2.567 1.079 3.216 0.502 0.675 0.904 0.971 0.864 1.031z"></path>
<path fill="#000" d="M0.512 28.974c0.054-0.132 1.46 0.361 3.772 0.911 2.373 0.565 5.487 1.104 9.163 1.078 0.216-0.001 0.43-0.005 0.643-0.010 0 0 0 0 0 0 3.516-0.087 6.473-0.673 8.707-1.249 2.182-0.563 3.5-1.040 3.554-0.912s-1.173 0.842-3.347 1.597c-2.214 0.769-5.268 1.496-8.887 1.599 0 0 0 0 0 0-0.22 0.006-0.441 0.010-0.664 0.012-3.783 0.026-7.008-0.649-9.368-1.409-2.312-0.745-3.629-1.484-3.574-1.616z"></path>
<path fill="#000" d="M24.919 28.52c-4.104-0.397-21.73-0.417-24.19-0.028l-0.334 0.053 0.435-1.836c1.324-5.588 2.060-7.632 5.115-14.211l0.379-0.817 0.375 0.055c2.602 0.381 11.119 0.261 13.297-0.187 0.189-0.039 0.254-0.016 0.254 0.088 0 0.077 0.39 0.965 0.867 1.972 2.187 4.623 3.171 7.366 4.32 12.049 0.356 1.449 0.668 2.708 0.695 2.797 0.054 0.182 0.024 0.184-1.212 0.064z"></path>
<path fill="#fff" d="M3.286 16.676c0.064-0.128 1.143 0.321 2.925 0.833 1.826 0.524 4.241 1.039 7.099 1.052 0.019 0 0.037 0 0.056 0 2.845 0.007 5.251-0.487 7.070-0.992 1.776-0.493 2.852-0.929 2.915-0.801s-0.91 0.804-2.683 1.495c-1.807 0.703-4.329 1.34-7.304 1.335-0.019-0-0.039-0-0.058-0-2.989-0.014-5.519-0.673-7.332-1.396-1.779-0.709-2.751-1.399-2.687-1.526z"></path>
<path fill="#fff" d="M11.885 19.357c0.115 0.064 0.038 0.402 0.13 0.832 0 0 0 0 0 0 0.042 0.197 0.123 0.418 0.264 0.615 0.125 0.174 0.3 0.335 0.505 0.431 0.15 0.071 0.324 0.113 0.496 0.112 0.038-0 0.075-0.003 0.112-0.007 0.179-0.020 0.354-0.091 0.493-0.191 0.155-0.11 0.278-0.265 0.355-0.422 0.096-0.194 0.129-0.407 0.126-0.589 0 0 0 0 0 0-0.004-0.401-0.165-0.69-0.076-0.781 0.055-0.056 0.473-0.009 0.727 0.622 0 0 0 0 0 0 0.108 0.27 0.16 0.631 0.059 1.027-0.083 0.322-0.265 0.649-0.561 0.91-0.266 0.233-0.607 0.399-0.992 0.451-0.078 0.010-0.157 0.015-0.236 0.016-0.359 0.003-0.696-0.094-0.983-0.258-0.388-0.225-0.657-0.55-0.813-0.886-0.176-0.378-0.206-0.751-0.164-1.049 0 0 0 0 0 0 0.097-0.686 0.479-0.876 0.558-0.832z"></path>
<path fill="#fff" d="M1.437 22.871c0.003-0.124 0.388-0.282 1.060-0.212 0.668 0.070 1.576 0.381 2.355 1.139 0 0 0 0 0 0 0.075 0.073 0.147 0.149 0.217 0.229 0.77 0.875 1.035 1.883 1.048 2.617 0.013 0.738-0.207 1.14-0.335 1.127-0.142-0.014-0.207-0.429-0.39-1.019-0.185-0.597-0.5-1.359-1.1-2.040-0.055-0.062-0.111-0.122-0.168-0.18 0 0 0 0 0 0-0.592-0.605-1.269-0.959-1.798-1.188-0.524-0.227-0.892-0.337-0.889-0.474z"></path>
<path fill="#fff" d="M20.606 27.932c0.142-0.014 0.207-0.429 0.39-1.019 0.185-0.597 0.5-1.359 1.1-2.040 0.055-0.062 0.111-0.122 0.168-0.18 0 0 0 0 0 0 0.592-0.605 1.269-0.959 1.798-1.188 0.524-0.227 0.892-0.337 0.889-0.474-0.003-0.124-0.388-0.282-1.060-0.212-0.668 0.070-1.576 0.381-2.355 1.139 0 0 0 0 0 0-0.075 0.073-0.147 0.149-0.217 0.229-0.77 0.875-1.035 1.883-1.048 2.617-0.013 0.738 0.207 1.14 0.335 1.127z"></path>
</svg>
