<!-- Generated by IcoMoon.io -->
<svg version="1.1" xmlns="http://www.w3.org/2000/svg" width="23" height="32" viewBox="0 0 23 32">
<title>sarouel_black</title>
<path fill="#000" d="M6.896 0.202c-0.233 0.699-0.561 1.359-0.876 2.024-0.122 0.234-0.225 0.475-0.315 0.722-0.003 0.008 0.167 0.061 0.17 0.053v0c0.091-0.242 0.198-0.477 0.318-0.707 0.323-0.674 0.656-1.346 0.876-2.062 0.001-0.009-0.171-0.037-0.172-0.029z"></path>
<path fill="#000" d="M12.16 0.060c0.262 0.721 0.651 1.372 1.114 1.98 0.090 0.079 0.293 0.393 0.448 0.396 0.037 0.001 0.072-0.015 0.108-0.022 0.007-0.005-0.088-0.149-0.095-0.144v0c0.015 0.001 0.033-0.003 0.047 0.004 0.005 0.003-0.001 0.019-0.007 0.016-0.142-0.070-0.236-0.244-0.344-0.345-0.454-0.6-0.836-1.239-1.104-1.944-0.003-0.008-0.169 0.051-0.166 0.059z"></path>
<path fill="#000" d="M1.686 24.727c0.267 0.528 0.386 1.113 0.522 1.684 0.164 0.69 0.171 0.734 0.318 1.407 0.042 0.184 0.083 0.368 0.124 0.552 0.002 0.009 0.189-0.025 0.187-0.035v0c-0.040-0.184-0.080-0.368-0.12-0.553-0.145-0.671-0.152-0.725-0.319-1.412-0.142-0.585-0.272-1.184-0.555-1.722-0.004-0.008-0.161 0.069-0.157 0.077z"></path>
<path fill="#000" d="M4.793 25.503c0.084 0.78 0.099 1.566 0.116 2.35 0 0.009 0.19 0.006 0.19-0.003v0c-0.016-0.79-0.032-1.583-0.131-2.368-0.001-0.009-0.176 0.012-0.175 0.021z"></path>
<path fill="#000" d="M18.586 28.289c1.080 1 1.979 2.181 2.824 3.382 0.076 0.11 0.152 0.219 0.228 0.329 0.004 0.008 0.166-0.081 0.162-0.089v0c-0.074-0.111-0.148-0.223-0.222-0.334-0.843-1.226-1.758-2.425-2.871-3.418-0.006-0.006-0.127 0.125-0.121 0.131z"></path>
<path fill="#000" d="M22.002 27.803c0.317 1.087 0.454 2.213 0.614 3.33 0.001 0.010 0.194-0.013 0.193-0.023v0c-0.155-1.129-0.295-2.268-0.636-3.359-0.003-0.008-0.174 0.043-0.171 0.052z"></path>
<path fill="#000" d="M13.57 1.087c-0.021 0.006-0.15 0.105-0.145 0.112 0.055 0.093 0.095 0.158 0.135 0.226-0.011 0.034-0.033 0.076-0.069 0.133-0.093 0.069-0.177 0.151-0.278 0.207-0.331 0.184-0.846 0.357-1.192 0.452-0.891 0.244-1.809 0.38-2.727 0.445-1.29 0.049-2.581 0.065-3.87-0.023-0.003-0.001-0.012 0.020-0.022 0.046-0.018-0.004-0.030-0.006-0.031-0.003-0.057 0.133-0.117 0.264-0.171 0.398-0.421 1.033-0.813 2.079-1.213 3.12-0.872 2.265-0.41 1.049-1.305 3.437-0.862 2.374-1.641 4.789-2.139 7.269-0.275 1.37-0.294 1.759-0.455 3.123-0.056 0.989-0.119 1.578-0.068 2.547 0.032 0.614 0.098 1.5 0.557 1.985 0.086 0.091 0.211 0.135 0.316 0.202 0.33 0.087 0.573 0.036 0.871-0.107 0.039-0.019 0.116-0.067 0.164-0.083 0.014 0.006 0.028 0.011 0.042 0.017-0.006 0.018-0.041 0.019-0.059 0.030 0.002 0.003 0.035-0.010 0.070-0.026 0.69 0.27 1.465 0.473 2.236 0.658 1.249 0.3 1.573 0.349 2.89 0.608 1.513 0.274 3.066 0.485 4.653 0.566 0.629 0.032 1.505 0.045 2.149-0.009 0.214-0.018 0.418-0.064 0.627-0.096 0.168-0.051 0.346-0.112 0.445-0.198 0.45 0.313 0.906 0.618 1.36 0.92 1.038 0.625 2.095 1.37 3.328 1.538 0.599 0.082 0.767 0.014 1.354-0.076 0.178-0.072 0.365-0.126 0.535-0.216 0.553-0.294 1.012-0.782 1.282-1.345 0.018-0.039 0.034-0.078 0.049-0.118 0.004 0 0.012 0.002 0.012 0.001 0.028-0.084 0.072-0.165 0.085-0.253 0.073-0.486 0.057-1.272 0.040-1.709-0.057-1.466-0.106-1.583-0.295-3.12-0.354-1.861-0.348-2.118-0.934-3.975-0.957-3.029-2.391-5.87-3.904-8.654-1.052-1.973-1.102-2.062-2.117-3.988-0.497-0.942-0.977-1.894-1.487-2.83-0.266-0.488-0.362-0.646-0.544-0.934-0.014-0.080-0.073-0.156-0.172-0.278-0-0-0.001-0-0.003-0zM13.674 1.617c0.115 0.195 0.207 0.362 0.42 0.771 0.491 0.942 0.958 1.897 1.445 2.841 0.955 1.853 1.098 2.112 2.095 4 1.501 2.776 2.934 5.605 3.896 8.62 0.585 1.834 0.584 2.101 0.941 3.938 0.203 1.566 0.241 1.604 0.317 3.092 0.021 0.424 0.048 1.206-0.003 1.685-0.002 0.021-0.007 0.041-0.012 0.062-0.004-0-0.007-0.001-0.007 0-0.032 0.080-0.058 0.163-0.097 0.24-0.26 0.525-0.696 0.985-1.217 1.257-0.16 0.083-0.335 0.131-0.503 0.197-0.516 0.088-0.639 0.145-1.192 0.075-1.213-0.156-2.243-0.91-3.262-1.519-0.493-0.327-0.986-0.657-1.473-0.995-0.019-0.021-0.043-0.041-0.061-0.061-0.001-0.001-0.010 0-0.022 0.003-0.994-0.695-1.959-1.432-2.831-2.276-0.005-0.007-0.152 0.095-0.147 0.103 0.87 0.893 1.857 1.658 2.877 2.375-0.061 0.089-0.269 0.144-0.406 0.183-0.199 0.027-0.394 0.066-0.597 0.082-0.597 0.047-1.41 0.028-1.98-0.002-1.57-0.084-3.107-0.293-4.608-0.56-1.335-0.258-1.616-0.299-2.885-0.592-0.827-0.192-1.664-0.399-2.399-0.688-0.015-0.012-0.030-0.022-0.048-0.029-0.061-0.025-0.221 0.073-0.254 0.088-0.103 0.046-0.266 0.12-0.383 0.129-0.088 0.007-0.176-0.009-0.265-0.014-0.089-0.050-0.196-0.077-0.267-0.15-0.255-0.261-0.357-0.658-0.415-0.998-0.193-1.129-0.066-2.288-0.003-3.42 0.16-1.316 0.19-1.781 0.46-3.1 0.506-2.469 1.297-4.87 2.143-7.239 0.85-2.298 1.707-4.595 2.575-6.886 1.28 0.111 2.566 0.098 3.848 0.051 0.929-0.067 1.859-0.204 2.758-0.46 0.355-0.101 0.879-0.284 1.215-0.483 0.109-0.065 0.2-0.158 0.3-0.238 0.018-0.029 0.033-0.055 0.047-0.080z"></path>
<path fill="#000" d="M19.092 28.182c-1.192-0.373-4.41-2.47-6.353-4.142-0.346-0.297-0.663-0.541-0.704-0.541-0.336 0 0.524 0.87 1.911 1.934l0.834 0.639-0.368 0.083c-0.52 0.117-2.952 0.079-4.3-0.068-2.246-0.245-5.99-0.984-7.491-1.478-0.592-0.195-0.789-0.215-1.116-0.115-0.518 0.159-0.735 0.034-0.989-0.569-0.167-0.395-0.201-0.777-0.192-2.116 0.020-2.84 0.587-5.818 1.836-9.639 0.44-1.347 2.633-7.346 3.313-9.065 0.056-0.142 0.422-0.17 2.291-0.175 1.624-0.004 2.486-0.058 3.194-0.198 1.175-0.233 2.209-0.578 2.487-0.83 0.113-0.102 0.222-0.165 0.242-0.14 0.045 0.058 3.447 6.616 4.942 9.528 2.777 5.41 3.838 8.934 4.102 13.623 0.089 1.587 0.001 1.969-0.598 2.586-0.77 0.792-1.885 1.042-3.041 0.681z"></path>
<path fill="#fff" d="M5.517 8.941c-0.553 2.324-1.148 4.641-1.557 6.982-0.138 0.793-0.245 1.588-0.368 2.381-0.187 1.787-0.406 3.597-0.167 5.389 0.021 0.157 0.126 0.971 0.47 1.181 0.103 0.063 0.268 0.028 0.401 0.042 0.425-0.345 0.25-0.15 0.518-0.589 0.004-0.008-0.221-0.066-0.225-0.058v0c-0.219 0.37-0.093 0.211-0.355 0.486-0.234 0.1-0.207 0.127-0.353-0.275-0.094-0.259-0.141-0.527-0.171-0.794-0.2-1.785 0.022-3.582 0.215-5.359 0.122-0.792 0.231-1.585 0.366-2.376 0.402-2.346 0.981-4.671 1.452-7.009 0-0.008-0.227-0.008-0.227 0z"></path>
<path fill="#fff" d="M9.1 10.668c-0.279 2.216-0.597 4.429-0.744 6.648-0.050 0.751-0.071 1.502-0.107 2.253 0.001 1.682-0.026 3.389 0.36 5.037 0.034 0.144 0.205 0.893 0.536 1.057 0.099 0.049 0.244 0.001 0.366 0.002 0.351-0.361 0.211-0.163 0.412-0.596 0.003-0.008-0.206-0.042-0.209-0.034v0c-0.163 0.365-0.064 0.205-0.274 0.485-0.202 0.114-0.175 0.137-0.345-0.224-0.109-0.233-0.177-0.478-0.229-0.724-0.349-1.644-0.319-3.339-0.314-5.013 0.035-0.749 0.058-1.498 0.105-2.248 0.14-2.223 0.442-4.442 0.647-6.664-0.001-0.008-0.206 0.013-0.205 0.021z"></path>
<path fill="#fff" d="M13.050 11.387c-0.014 0.941 0.165 1.894 0.339 2.811 0.323 1.704 0.582 2.839 1.106 4.532 0.265 0.858 0.582 1.7 0.873 2.55 0.762 1.784 1.44 3.671 2.615 5.243 0.145 0.194 0.339 0.344 0.509 0.517 0.006 0.008 0.162-0.11 0.156-0.117v0c-0.157-0.166-0.338-0.313-0.471-0.499-1.137-1.578-1.803-3.445-2.556-5.216-0.292-0.845-0.607-1.683-0.875-2.536-0.541-1.724-0.787-2.778-1.135-4.506-0.183-0.907-0.377-1.847-0.387-2.779 0-0.009-0.174-0.009-0.174 0z"></path>
</svg>
