<!-- Generated by IcoMoon.io -->
<svg version="1.1" xmlns="http://www.w3.org/2000/svg" width="25" height="32" viewBox="0 0 25 32">
<title>tee_shirt_woman</title>
<path d="M9.418 0.321c-0.237 0-0.387 0.023-0.493 0.073s-0.167 0.126-0.225 0.221c-0.115 0.192-0.23 0.481-0.199 1.032s0.197 1.328 0.68 2.199c0.483 0.871 1.276 1.815 1.92 2.392s1.142 0.789 1.696 0.751c0.554-0.038 1.162-0.325 1.844-0.94s1.436-1.559 1.874-2.239c0.438-0.68 0.548-1.066 0.548-1.513s-0.113-0.945-0.47-1.253-0.947-0.421-1.825-0.477c-0.879-0.057-2.048-0.057-3.047-0.104s-1.828-0.141-2.302-0.141zM9.418 0.368c0.468 0 1.299 0.095 2.3 0.142s2.17 0.047 3.046 0.104c0.876 0.056 1.456 0.171 1.797 0.466s0.454 0.778 0.454 1.217c0 0.439-0.106 0.811-0.541 1.488s-1.189 1.619-1.866 2.23-1.275 0.89-1.815 0.928c-0.54 0.037-1.023-0.166-1.662-0.739s-1.43-1.516-1.91-2.38c-0.479-0.865-0.644-1.635-0.674-2.178s0.081-0.819 0.193-1.005c0.056-0.093 0.108-0.158 0.204-0.203s0.239-0.069 0.474-0.069z"></path>
<path d="M9.026 0.142c-0.236 0.005-0.406 0.025-0.511 0.061s-0.505 0.253-0.887 0.481c-1.186 0.708-1.962 1.054-3.096 1.379-0.686 0.196-1.403 0.51-1.815 0.793-0.378 0.26-0.651 0.555-1.198 1.292-0.263 0.354-0.694 0.855-0.958 1.112-0.554 0.539-0.552 0.471-0.034 1.092 1.238 1.485 2.999 2.797 3.925 2.925 0.153 0.021 0.279 0.061 0.279 0.090s-0.038 0.051-0.085 0.051c-0.047 0-0.085 0.025-0.085 0.055s0.088 0.724 0.195 1.542c0.359 2.734 0.396 3.268 0.398 5.618 0.002 3.161-0.173 4.691-1.186 10.353-0.651 3.639-0.665 3.759-0.449 3.998 0.131 0.144 0.504 0.257 1.295 0.392 1.194 0.203 3.030 0.36 5.548 0.474 0.218 0.010 1.937 0.012 3.82 0.004 2.617-0.011 3.59-0.034 4.131-0.099 1.671-0.201 2.194-0.368 2.356-0.757 0.18-0.43 0.106-1.167-0.578-5.791-0.77-5.201-0.917-6.497-0.968-8.517-0.038-1.501 0.024-2.463 0.267-4.159 0.175-1.216 0.41-2.525 0.465-2.579 0.018-0.018 0.11 0.008 0.204 0.057s0.267 0.089 0.383 0.089c0.278 0 0.894-0.308 1.452-0.726 1.043-0.781 2.757-2.455 2.757-2.691 0-0.073-0.107-0.228-0.259-0.376-0.383-0.373-0.585-0.669-1.1-1.61-0.255-0.467-0.562-0.98-0.682-1.14-0.284-0.379-0.92-0.802-1.591-1.057-0.29-0.11-0.91-0.346-1.377-0.524s-1.29-0.525-1.829-0.771c-1.481-0.676-1.536-0.686-4.339-0.783-0.871-0.030-2.081-0.105-2.688-0.167-0.783-0.080-1.365-0.116-1.759-0.109zM8.999 0.293l0.737 0.030c0.405 0.017 1.336 0.058 2.067 0.093s1.852 0.088 2.49 0.117c1.613 0.076 2.154 0.223 2.483 0.677 0.232 0.32 0.309 0.655 0.279 1.218-0.023 0.429-0.052 0.534-0.263 0.949-0.325 0.639-1.051 1.591-1.763 2.314-0.62 0.629-1.112 0.989-1.604 1.172-0.56 0.208-1.088 0.195-1.546-0.039-0.982-0.501-2.477-2.259-3.001-3.531-0.512-1.243-0.538-2.445-0.060-2.847z"></path>
<path d="M9.024 0.001c-0.243 0.005-0.42 0.023-0.554 0.069-0.083 0.028-0.199 0.090-0.362 0.178s-0.36 0.2-0.552 0.316c-1.18 0.705-1.937 1.042-3.063 1.364-0.699 0.2-1.421 0.513-1.856 0.812-0.393 0.27-0.682 0.583-1.232 1.325-0.257 0.346-0.69 0.848-0.944 1.095-0.137 0.134-0.241 0.23-0.319 0.319s-0.139 0.18-0.142 0.293c-0.004 0.113 0.049 0.208 0.12 0.307s0.169 0.21 0.297 0.365c0.627 0.752 1.383 1.458 2.104 1.994s1.395 0.909 1.911 0.98c0.001 0 0.002 0 0.003 0.001-0.006 0.018-0.016 0.034-0.016 0.055 0 0.038 0.002 0.033 0.005 0.057s0.007 0.057 0.012 0.098c0.010 0.083 0.024 0.198 0.042 0.338 0.035 0.28 0.084 0.658 0.138 1.067 0.358 2.733 0.395 3.251 0.397 5.6 0.002 3.156-0.171 4.668-1.184 10.328-0.326 1.82-0.492 2.758-0.551 3.283-0.030 0.263-0.034 0.424-0.010 0.552s0.088 0.218 0.147 0.282c0.098 0.108 0.245 0.174 0.464 0.24s0.514 0.128 0.913 0.196c1.206 0.205 3.045 0.362 5.565 0.476 0.125 0.006 0.599 0.008 1.292 0.009s1.593-0.001 2.535-0.005c2.618-0.011 3.591-0.033 4.147-0.1 0.839-0.101 1.392-0.192 1.77-0.314s0.6-0.292 0.7-0.529c0.104-0.248 0.127-0.569 0.045-1.391s-0.272-2.162-0.614-4.475c-0.77-5.2-0.916-6.485-0.967-8.5-0.038-1.495 0.023-2.444 0.266-4.136 0.087-0.606 0.189-1.236 0.277-1.72 0.044-0.242 0.084-0.447 0.115-0.594 0.011-0.052 0.020-0.085 0.029-0.121 0.016 0.007 0.027 0.009 0.044 0.018 0.129 0.067 0.299 0.105 0.448 0.105 0.191 0 0.417-0.087 0.684-0.221s0.567-0.319 0.852-0.533c0.53-0.397 1.221-1.013 1.784-1.562 0.281-0.275 0.53-0.532 0.711-0.739 0.091-0.103 0.164-0.194 0.218-0.271 0.027-0.038 0.049-0.073 0.067-0.108s0.035-0.067 0.035-0.124c0-0.105-0.045-0.164-0.097-0.24s-0.122-0.158-0.204-0.238c-0.374-0.364-0.561-0.639-1.074-1.577-0.257-0.47-0.556-0.974-0.693-1.157-0.314-0.42-0.962-0.842-1.654-1.105-0.29-0.11-0.91-0.346-1.377-0.524-0.461-0.175-1.285-0.523-1.821-0.767-0.741-0.338-1.141-0.517-1.707-0.619s-1.284-0.128-2.686-0.176c-0.868-0.030-2.079-0.105-2.678-0.167-0.786-0.081-1.37-0.117-1.776-0.109zM8.772 0.3l-0.045 0.038c-0.293 0.246-0.403 0.69-0.391 1.219s0.15 1.154 0.412 1.79c0.271 0.658 0.782 1.422 1.351 2.092s1.191 1.243 1.716 1.511c0.496 0.253 1.071 0.265 1.66 0.045 0.52-0.193 1.028-0.568 1.656-1.205 0.722-0.732 1.45-1.685 1.789-2.349 0.213-0.418 0.255-0.572 0.278-1.006 0.030-0.579-0.055-0.962-0.306-1.308-0.074-0.102-0.165-0.189-0.269-0.267 0.318 0.102 0.643 0.245 1.132 0.468 0.543 0.248 1.365 0.595 1.838 0.774 0.467 0.178 1.086 0.413 1.377 0.524 0.65 0.247 1.275 0.671 1.528 1.010 0.102 0.137 0.418 0.66 0.671 1.123 0.516 0.944 0.733 1.262 1.125 1.644 0.070 0.068 0.13 0.139 0.169 0.195 0.029 0.043 0.039 0.073 0.043 0.077-0 0 0 0 0 0-0.008 0.016-0.024 0.042-0.046 0.073-0.044 0.063-0.113 0.148-0.199 0.247-0.173 0.198-0.418 0.452-0.696 0.723-0.555 0.542-1.243 1.154-1.756 1.538-0.272 0.204-0.56 0.382-0.809 0.506s-0.471 0.191-0.558 0.191c-0.083 0-0.258-0.042-0.318-0.073-0.055-0.028-0.108-0.050-0.158-0.064-0.025-0.007-0.049-0.012-0.078-0.014s-0.074-0.013-0.134 0.047c-0.044 0.044-0.038 0.056-0.045 0.075s-0.013 0.039-0.020 0.063c-0.013 0.048-0.028 0.11-0.045 0.186-0.033 0.152-0.073 0.36-0.117 0.604-0.088 0.488-0.191 1.12-0.278 1.73-0.244 1.7-0.307 2.677-0.268 4.183 0.051 2.025 0.2 3.332 0.97 8.534 0.342 2.312 0.531 3.652 0.612 4.462s0.052 1.072-0.025 1.254c-0.063 0.151-0.184 0.259-0.525 0.369s-0.885 0.202-1.718 0.302c-0.525 0.063-1.498 0.087-4.115 0.098-0.941 0.004-1.842 0.005-2.534 0.005s-1.187-0.004-1.279-0.009c-2.515-0.114-4.348-0.271-5.53-0.472-0.393-0.067-0.68-0.128-0.878-0.188s-0.303-0.123-0.336-0.159c-0.049-0.055-0.064-0.069-0.078-0.144s-0.015-0.217 0.013-0.469c0.057-0.504 0.223-1.445 0.548-3.265 1.013-5.663 1.191-7.211 1.189-10.378-0.002-2.352-0.040-2.901-0.399-5.637-0.054-0.409-0.102-0.787-0.138-1.066-0.018-0.14-0.032-0.254-0.042-0.336-0.003-0.022-0.004-0.035-0.006-0.052 0.023-0.006 0.046-0.005 0.068-0.018 0.043-0.026 0.093-0.079 0.093-0.157 0-0.056-0.027-0.091-0.046-0.11s-0.033-0.028-0.048-0.036c-0.029-0.016-0.056-0.026-0.087-0.036-0.062-0.020-0.137-0.036-0.221-0.048-0.41-0.056-1.079-0.404-1.78-0.927s-1.445-1.216-2.055-1.949c-0.13-0.156-0.227-0.269-0.285-0.349s-0.068-0.118-0.067-0.133c0-0.015 0.011-0.046 0.072-0.116s0.165-0.167 0.304-0.303c0.275-0.268 0.705-0.767 0.973-1.129 0.544-0.734 0.802-1.010 1.165-1.26 0.388-0.267 1.101-0.581 1.773-0.773 1.144-0.328 1.938-0.682 3.13-1.393 0.189-0.113 0.384-0.224 0.542-0.31s0.296-0.151 0.319-0.159c0.043-0.015 0.117-0.027 0.21-0.037zM9.049 0.437l0.682 0.028c0.405 0.016 1.335 0.058 2.066 0.093s1.852 0.088 2.49 0.117c0.803 0.038 1.335 0.094 1.692 0.192s0.535 0.224 0.683 0.427c0.213 0.295 0.281 0.58 0.253 1.127-0.022 0.423-0.039 0.481-0.248 0.892-0.313 0.614-1.036 1.566-1.738 2.278-0.613 0.622-1.089 0.966-1.553 1.138-0.531 0.198-1.011 0.183-1.433-0.032-0.457-0.233-1.074-0.79-1.629-1.442s-1.053-1.403-1.305-2.016c-0.25-0.607-0.38-1.205-0.391-1.688s0.106-0.841 0.291-0.997v-0z"></path>
</svg>
