<!-- Generated by IcoMoon.io -->
<svg version="1.1" xmlns="http://www.w3.org/2000/svg" width="25" height="32" viewBox="0 0 25 32">
<title>chemise_black</title>
<path fill="#000" d="M1.849 4.94h21.277v25.211h-21.277z"></path>
<path fill="#000" d="M1.849 3.091c-1.021 0-1.849 0.828-1.849 1.849 0 0 0 0 0 0v0 25.211c0 1.021 0.828 1.849 1.849 1.849h21.277c0 0 0 0 0 0 1.021 0 1.849-0.828 1.849-1.849v0-25.211c0-0 0-0 0-0 0-1.021-0.828-1.849-1.849-1.849-0 0-0 0-0 0v0zM3.698 6.789h17.58v21.513h-17.58z"></path>
<path fill="#000" d="M11.683 27.916h1.609v2.235h-1.609z"></path>
<path fill="#000" d="M11.683 26.067c-1.021 0-1.849 0.828-1.849 1.849v2.235c0 1.021 0.828 1.849 1.849 1.849h1.609c1.021-0 1.849-0.828 1.849-1.849v0-2.235c-0-1.021-0.828-1.849-1.849-1.849v0z"></path>
<path fill="#000" d="M10.342 26.217h4.291v3.934h-4.291z"></path>
<path fill="#000" d="M10.342 24.369c-1.021 0-1.849 0.828-1.849 1.849v0 3.934c0 1.021 0.828 1.849 1.849 1.849h4.291c1.021-0 1.849-0.828 1.849-1.849v0-3.934c-0-1.021-0.828-1.849-1.849-1.849v0zM12.191 28.066h0.594v0.236h-0.594z"></path>
<path fill="#fff" d="M12.491 32c0.508-0 0.92-5.567 0.918-12.427s-0.416-12.426-0.925-12.426-0.92 5.567-0.918 12.427c0.002 6.86 0.416 12.427 0.925 12.427z"></path>
<path fill="#fff" d="M15.848 14.148c-0.007-0.508 1.538-0.941 3.448-0.966s3.465 0.368 3.472 0.876c0.007 0.508-1.538 0.941-3.448 0.966s-3.465-0.368-3.472-0.876z"></path>
<path fill="#000" d="M6.204 0c-0.162 0.002-0.26 0.031-0.284 0.090-0.014 0.033-0.003 0.076 0.031 0.125-0.1 0.168-0.199 0.522-0.49 0.867-0.117 0.145-0.294 0.3-0.498 0.536-0.181 0.194-0.377 0.471-0.484 0.856-0.087 0.384-0.042 0.793 0.143 1.166 0.17 0.342 0.42 0.64 0.726 0.874 0.258 0.193 0.529 0.347 0.807 0.475 0.348 0.16 0.692 0.272 0.997 0.361 2.431 0.758 4.343 1.205 4.463 0.913 0.014-0.033 0.003-0.076-0.031-0.125 0.1-0.168 0.199-0.522 0.49-0.867 0.090-0.111 0.215-0.229 0.361-0.384 0.146 0.155 0.271 0.273 0.361 0.384 0.291 0.345 0.39 0.699 0.49 0.867-0.034 0.050-0.045 0.092-0.031 0.125 0.12 0.293 2.032-0.155 4.463-0.913 0.304-0.089 0.648-0.2 0.997-0.361 0.278-0.128 0.549-0.282 0.807-0.475 0.305-0.234 0.556-0.532 0.726-0.874 0.185-0.373 0.23-0.783 0.143-1.166-0.107-0.385-0.304-0.662-0.484-0.856-0.205-0.235-0.381-0.391-0.498-0.536-0.291-0.345-0.39-0.699-0.49-0.867 0.034-0.050 0.045-0.092 0.031-0.125-0.049-0.119-0.393-0.116-0.948-0.019-0.811 0.141-2.071 0.482-3.515 0.932-0.304 0.089-0.648 0.2-0.997 0.361-0.278 0.128-0.549 0.282-0.807 0.475-0.087 0.067-0.17 0.139-0.247 0.215-0.078-0.077-0.16-0.149-0.247-0.215-0.258-0.193-0.529-0.347-0.807-0.475-0.348-0.16-0.692-0.272-0.997-0.361-1.443-0.45-2.704-0.791-3.515-0.932-0.277-0.048-0.502-0.073-0.664-0.071zM6.361 0.562c0.65 0.428 1.96 1.042 3.59 1.627 0.29 0.11 0.603 0.217 0.855 0.326 0.207 0.089 0.384 0.183 0.528 0.296 0.172 0.129 0.311 0.264 0.391 0.406 0.020 0.035 0.038 0.070 0.053 0.105-0.018 0.176-0.009 0.353 0.027 0.525-0.036 0.096-0.091 0.201-0.146 0.308-0.14 0.244-0.273 0.445-0.386 0.727-0.149 0.387-0.153 0.69-0.102 0.911-0.65-0.428-1.96-1.042-3.59-1.627-0.29-0.11-0.603-0.217-0.855-0.326-0.207-0.089-0.384-0.183-0.528-0.296-0.172-0.129-0.311-0.264-0.391-0.406-0.084-0.148-0.134-0.305-0.122-0.432-0.006-0.134 0.091-0.317 0.189-0.506 0.14-0.244 0.273-0.445 0.386-0.727 0.149-0.387 0.153-0.69 0.102-0.911zM18.506 0.562c-0.052 0.221-0.048 0.523 0.102 0.911 0.112 0.282 0.246 0.482 0.386 0.727 0.098 0.189 0.195 0.372 0.189 0.506 0.012 0.127-0.038 0.285-0.122 0.432-0.081 0.141-0.22 0.276-0.391 0.406-0.144 0.113-0.321 0.207-0.528 0.296-0.252 0.109-0.565 0.216-0.855 0.326-1.63 0.585-2.94 1.199-3.59 1.627 0.052-0.221 0.048-0.524-0.102-0.911-0.112-0.282-0.246-0.483-0.386-0.727-0.056-0.107-0.11-0.212-0.146-0.308 0.035-0.172 0.045-0.349 0.027-0.525 0.016-0.035 0.034-0.071 0.053-0.105 0.081-0.141 0.22-0.276 0.391-0.406 0.144-0.113 0.321-0.207 0.528-0.296 0.252-0.109 0.565-0.216 0.855-0.326 1.63-0.585 2.94-1.199 3.59-1.627z"></path>
<path fill="#fff" d="M13.695 5.792c-0.034-0.2-0.193-0.615-0.354-0.921-0.226-0.431-0.283-0.633-0.25-0.894 0.064-0.509 0.46-0.773 2.109-1.399 0.794-0.302 1.833-0.741 2.307-0.975l0.862-0.426 0.047 0.347c0.026 0.191 0.198 0.641 0.382 0.999 0.313 0.609 0.328 0.671 0.218 0.936-0.177 0.427-0.558 0.665-1.861 1.163-1.287 0.492-2.864 1.183-3.192 1.398-0.202 0.132-0.207 0.127-0.268-0.229z"></path>
<path fill="#fff" d="M13.695 5.792c-0.034-0.2-0.193-0.615-0.354-0.921-0.226-0.431-0.283-0.633-0.25-0.894 0.064-0.509 0.46-0.773 2.109-1.399 0.794-0.302 1.833-0.741 2.307-0.975l0.862-0.426 0.047 0.347c0.026 0.191 0.198 0.641 0.382 0.999 0.313 0.609 0.328 0.671 0.218 0.936-0.177 0.427-0.558 0.665-1.861 1.163-1.287 0.492-2.864 1.183-3.192 1.398-0.202 0.132-0.207 0.127-0.268-0.229z"></path>
<path fill="#fff" d="M10.253 5.746c-0.418-0.21-1.243-0.569-1.833-0.798-1.949-0.757-2.182-0.869-2.458-1.183-0.344-0.392-0.338-0.614 0.034-1.316 0.167-0.314 0.33-0.73 0.363-0.925l0.060-0.353 0.732 0.377c0.403 0.208 1.215 0.564 1.805 0.792 1.861 0.72 2.16 0.859 2.447 1.139 0.364 0.356 0.366 0.72 0.009 1.406-0.149 0.286-0.3 0.682-0.335 0.881l-0.065 0.361z"></path>
<path fill="#fff" d="M10.253 5.746c-0.418-0.21-1.243-0.569-1.833-0.798-1.949-0.757-2.182-0.869-2.458-1.183-0.344-0.392-0.338-0.614 0.034-1.316 0.167-0.314 0.33-0.73 0.363-0.925l0.060-0.353 0.732 0.377c0.403 0.208 1.215 0.564 1.805 0.792 1.861 0.72 2.16 0.859 2.447 1.139 0.364 0.356 0.366 0.72 0.009 1.406-0.149 0.286-0.3 0.682-0.335 0.881l-0.065 0.361z"></path>
<path fill="#fff" d="M13.739 5.87c0-0.103-0.141-0.513-0.313-0.91-0.231-0.532-0.313-0.85-0.313-1.208 0-0.443 0.028-0.512 0.318-0.778 0.211-0.193 0.7-0.436 1.453-0.722 1.32-0.501 2.976-1.223 3.258-1.421 0.284-0.199 0.335-0.173 0.335 0.169 0 0.178 0.134 0.562 0.319 0.916 0.292 0.557 0.314 0.652 0.259 1.1-0.080 0.648-0.386 0.935-1.483 1.384-1.71 0.7-3.348 1.409-3.54 1.532-0.262 0.167-0.294 0.16-0.294-0.062z"></path>
<path fill="#fff" d="M18.417 0.712c0.024 0.012 0.039 0.041 0.048 0.089s0.013 0.113 0.013 0.199c0-0.086-0.003-0.151-0.012-0.199s-0.025-0.076-0.049-0.089z"></path>
<path fill="#fff" d="M10.409 5.781c-0.283-0.144-1.107-0.505-1.833-0.801-2.553-1.044-2.685-1.131-2.802-1.848-0.063-0.387-0.037-0.492 0.282-1.142 0.196-0.398 0.352-0.847 0.352-1.013 0-0.164 0.030-0.282 0.067-0.264 0.86 0.442 2.186 1.033 3.062 1.365 1.355 0.513 1.673 0.671 1.99 0.988 0.304 0.304 0.311 0.575 0.031 1.311-0.117 0.31-0.264 0.704-0.325 0.876s-0.156 0.42-0.211 0.551l-0.1 0.238z"></path>
<path fill="#fff" d="M10.409 5.781c-0.283-0.144-1.107-0.505-1.833-0.801-2.553-1.044-2.685-1.131-2.802-1.848-0.063-0.387-0.037-0.492 0.282-1.142 0.196-0.398 0.352-0.847 0.352-1.013 0-0.164 0.030-0.282 0.067-0.264 0.86 0.442 2.186 1.033 3.062 1.365 1.355 0.513 1.673 0.671 1.99 0.988 0.304 0.304 0.311 0.575 0.031 1.311-0.117 0.31-0.264 0.704-0.325 0.876s-0.156 0.42-0.211 0.551l-0.1 0.238z"></path>
</svg>
