<!-- Generated by IcoMoon.io -->
<svg version="1.1" xmlns="http://www.w3.org/2000/svg" width="27" height="32" viewBox="0 0 27 32">
<title>gilet_black</title>
<path fill="#000" d="M3.49 3.317c0.054-0.038 0.843 0.811 1.671 2.686 0.816 1.847 1.641 4.858 1.14 8.557 0 0 0 0 0 0-0.52 3.808-2.242 7.529-5.017 11.665-0.134 0.207-0.26 0.385-0.317 0.554 0 0 0 0 0 0-0.078 0.2-0.093 0.437-0.063 0.674 0.030 0.236 0.117 0.475 0.235 0.711 0.254 0.507 0.667 0.949 1.155 1.31 0.48 0.354 1.038 0.622 1.635 0.845 2.463 0.927 5.258 0.87 8.113 0.424-0.023 0.004 0.035-0.006 0.013-0.002 0.271-0.045 0.519-0.086 0.736-0.162 0.104-0.038 0.193-0.073 0.256-0.117 0.061-0.044 0.11-0.087 0.127-0.125 0.027-0.036 0.037-0.109 0.048-0.201 0 0 0 0 0 0 0.008-0.094-0.004-0.213-0.014-0.356-0.251-3.196 0.121-6.606 0.277-9.464 0.178-3.418 0.093-6.411-0.825-9.164 0 0 0 0 0 0-0.702-2.132-1.887-4.019-3.021-5.551-1.367-1.844-3.175-3.817-4.204-4.972-0.029-0.032-0.052-0.059-0.072-0.077-0.056-0.054-0.138-0.090-0.223-0.109-0.089-0.019-0.189-0.014-0.286 0.005-0.206 0.037-0.416 0.162-0.615 0.277-0.326 0.196-0.583 0.358-0.79 0.577-0.249 0.266-0.379 0.553-0.383 0.818-0.008 0.222 0.071 0.442 0.14 0.597 0.172 0.386 0.313 0.582 0.288 0.599s-0.203-0.129-0.442-0.517c-0.097-0.157-0.211-0.391-0.231-0.673-0.017-0.333 0.105-0.71 0.387-1.039 0.227-0.267 0.504-0.473 0.826-0.686 0.194-0.133 0.434-0.285 0.725-0.364 0.14-0.036 0.294-0.050 0.455-0.027 0.155 0.022 0.313 0.086 0.448 0.197 0.045 0.039 0.081 0.075 0.112 0.107 1.105 1.137 2.929 2.998 4.398 4.881 1.2 1.537 2.459 3.461 3.241 5.7 0 0 0 0 0 0 0.998 2.889 1.14 6.005 0.973 9.465-0.133 2.891-0.489 6.278-0.236 9.343 0.012 0.137 0.025 0.3 0.016 0.487 0 0 0 0 0 0-0.006 0.189-0.056 0.398-0.167 0.608-0.115 0.196-0.265 0.346-0.429 0.451-0.161 0.104-0.323 0.175-0.474 0.224-0.309 0.103-0.61 0.157-0.89 0.201-0 0-0.013 0.002-0.013 0.002-2.939 0.479-5.9 0.508-8.586-0.493-0.65-0.243-1.283-0.556-1.853-0.977-0.584-0.43-1.082-0.983-1.414-1.639-0.154-0.305-0.268-0.641-0.316-0.999-0.049-0.363-0.014-0.744 0.121-1.103 0 0 0 0 0 0 0.119-0.294 0.276-0.53 0.417-0.73 2.768-4.069 4.5-7.608 5.076-11.274 0 0 0 0 0 0 0.561-3.543-0.122-6.473-0.816-8.32-0.702-1.871-1.382-2.788-1.328-2.826z"></path>
<path fill="#000" d="M6.151 30.852c-2.611-0.463-4.291-1.4-4.965-2.767-0.411-0.836-0.361-1.063 0.539-2.449 4.154-6.396 5.521-11.67 4.368-16.859-0.406-1.827-1.324-3.967-2.149-5.009-0.501-0.633-0.821-1.264-0.821-1.619 0-0.445 0.358-0.896 1.018-1.286 0.966-0.57 0.937-0.584 2.504 1.208 3.178 3.632 4.596 5.694 5.596 8.138 1.197 2.925 1.469 5.989 1.070 12.090-0.186 2.847-0.266 7.272-0.138 7.606 0.080 0.208-0.114 0.52-0.386 0.624-0.939 0.357-5.261 0.568-6.637 0.324z"></path>
<path fill="#000" d="M23.328 3.317c-0.054-0.038-0.843 0.811-1.671 2.686-0.816 1.847-1.641 4.858-1.14 8.557 0 0 0 0 0 0 0.52 3.808 2.242 7.529 5.017 11.665 0.134 0.207 0.26 0.385 0.317 0.554 0 0 0 0 0 0 0.078 0.2 0.093 0.437 0.063 0.674-0.030 0.236-0.117 0.475-0.235 0.711-0.254 0.507-0.667 0.949-1.155 1.31-0.48 0.354-1.038 0.622-1.635 0.845-2.463 0.927-5.258 0.87-8.113 0.424 0.023 0.004-0.035-0.006-0.013-0.002-0.271-0.045-0.519-0.086-0.736-0.162-0.104-0.038-0.193-0.073-0.256-0.117-0.061-0.044-0.11-0.087-0.127-0.125-0.027-0.036-0.037-0.109-0.048-0.201 0 0 0 0 0 0-0.008-0.094 0.004-0.213 0.014-0.356 0.251-3.196-0.121-6.606-0.277-9.464-0.178-3.418-0.093-6.411 0.825-9.164 0 0 0 0 0 0 0.702-2.132 1.887-4.019 3.021-5.551 1.367-1.844 3.175-3.817 4.204-4.972 0.029-0.032 0.052-0.059 0.072-0.077 0.056-0.054 0.138-0.090 0.223-0.109 0.089-0.019 0.189-0.014 0.286 0.005 0.206 0.037 0.416 0.162 0.615 0.277 0.326 0.196 0.583 0.358 0.79 0.577 0.249 0.266 0.379 0.553 0.383 0.818 0.008 0.222-0.071 0.442-0.14 0.597-0.172 0.386-0.313 0.582-0.288 0.599s0.203-0.129 0.442-0.517c0.097-0.157 0.211-0.391 0.231-0.673 0.017-0.333-0.105-0.71-0.387-1.039-0.227-0.267-0.504-0.473-0.826-0.686-0.194-0.133-0.434-0.285-0.725-0.364-0.14-0.036-0.294-0.050-0.455-0.027-0.155 0.022-0.313 0.086-0.448 0.197-0.045 0.039-0.081 0.075-0.112 0.107-1.105 1.137-2.929 2.998-4.398 4.881-1.2 1.537-2.459 3.461-3.241 5.7 0 0 0 0 0 0-0.998 2.889-1.14 6.005-0.973 9.465 0.133 2.891 0.489 6.278 0.236 9.343-0.012 0.137-0.025 0.3-0.016 0.487 0 0 0 0 0 0 0.006 0.189 0.056 0.398 0.167 0.608 0.115 0.196 0.265 0.346 0.429 0.451 0.161 0.104 0.323 0.175 0.474 0.224 0.309 0.103 0.61 0.157 0.89 0.201 0 0 0.013 0.002 0.013 0.002 2.939 0.479 5.9 0.508 8.586-0.493 0.65-0.243 1.283-0.556 1.853-0.977 0.584-0.43 1.082-0.983 1.414-1.639 0.154-0.305 0.268-0.641 0.316-0.999 0.049-0.363 0.014-0.744-0.121-1.103 0 0 0 0 0 0-0.119-0.294-0.276-0.53-0.417-0.73-2.768-4.069-4.5-7.608-5.076-11.274 0 0 0 0 0 0-0.561-3.543 0.122-6.473 0.816-8.32 0.702-1.871 1.382-2.788 1.328-2.826z"></path>
<path fill="#000" d="M20.667 30.852c2.611-0.463 4.291-1.4 4.965-2.767 0.412-0.836 0.361-1.063-0.539-2.449-4.154-6.396-5.521-11.67-4.368-16.859 0.406-1.827 1.324-3.967 2.149-5.009 0.501-0.633 0.821-1.264 0.821-1.619 0-0.445-0.358-0.896-1.018-1.286-0.966-0.57-0.937-0.584-2.504 1.208-3.178 3.632-4.596 5.694-5.596 8.138-1.197 2.925-1.469 5.989-1.070 12.090 0.186 2.847 0.266 7.272 0.138 7.606-0.080 0.208 0.114 0.52 0.386 0.624 0.939 0.357 5.261 0.568 6.637 0.324z"></path>
<path fill="#000" d="M5.601 0.473c0.068-0.107 0.855 0.305 2.178 0.784 1.35 0.489 3.178 0.989 5.357 1.038 0 0 0 0 0 0 0.118 0.003 0.236 0.004 0.355 0.004 2.267-0.001 4.182-0.498 5.603-1.003 1.391-0.494 2.219-0.933 2.289-0.823s-0.642 0.761-2.029 1.439c-1.411 0.69-3.441 1.33-5.862 1.332-0.127 0-0.253-0.002-0.379-0.005 0 0 0 0 0 0-2.326-0.064-4.258-0.71-5.593-1.381-1.315-0.661-1.987-1.278-1.919-1.385z"></path>
<path fill="#fff" d="M15.786 16.759c0 0.532-0.411 0.963-0.918 0.963s-0.918-0.431-0.918-0.963c0-0.532 0.411-0.963 0.918-0.963s0.918 0.431 0.918 0.963z"></path>
<path fill="#fff" d="M15.786 19.374c0 0.532-0.411 0.963-0.918 0.963s-0.918-0.431-0.918-0.963c0-0.532 0.411-0.963 0.918-0.963s0.918 0.431 0.918 0.963z"></path>
<path fill="#fff" d="M15.877 21.852c0 0.532-0.411 0.963-0.918 0.963s-0.918-0.431-0.918-0.963c0-0.532 0.411-0.963 0.918-0.963s0.918 0.431 0.918 0.963z"></path>
</svg>
