<!-- Generated by IcoMoon.io -->
<svg version="1.1" xmlns="http://www.w3.org/2000/svg" width="30" height="32" viewBox="0 0 30 32">
<title>manteau_veste_2_black</title>
<path d="M14.76 25.806c-3.471 0.017-6.7 1.49-9.827 2.845 1.767 0.254 3.212-1.389 4.956-1.62 3.212-1.14 6.796-1.135 9.996 0.073 1.626 0.531 3.206 1.208 4.781 1.868-0.977-1.428-3.059-1.326-4.482-2.145-1.75-0.581-3.567-1.022-5.424-1.022z"></path>
<path d="M19.146 0.192c-2.63 0.745-5.548 1.163-8.139 0.073-0.971 0.542 2.060 0.914 2.771 0.988 1.829 0.135 3.669-0.203 5.407-0.728l0.028-0.073z"></path>
<path d="M10.544 0.327c-1.947 0.621-4.414 0.734-5.639 2.613-1.355 2.275-1.23 5.024-1.592 7.564-0.542 6.040-1.755 11.989-3.2 17.87-0.107 1.055 0.378-1.383 0.508-1.817 1.389-5.78 2.421-11.65 2.924-17.582 0.254-2.23 0.344-4.713 1.818-6.531 1.383-1.366 3.477-1.484 5.204-2.055z"></path>
<path d="M0 29.007c1.778 0.22 3.488 1.304 4.493 2.636-0.948-1.4-2.421-2.41-4.12-2.574l-0.186-0.028z"></path>
<path d="M9.381 8.523c-2.111 6.181-3.849 12.531-4.386 19.061-0.147 1.411-0.277 2.822-0.412 4.233 0.423-2.675 0.491-5.402 0.954-8.072 0.717-5.204 2.246-10.239 3.912-15.2z"></path>
<path d="M7.626 5.407c1.321 2.088 2.517 4.346 2.715 6.852 0.48 4.29-1.309 8.399-3.33 12.068-0.706 1.428-1.688 2.8-2.060 4.346 0.356-1.112 1.027-2.354 1.659-3.449 2.19-4.019 4.408-8.455 3.776-13.174-0.288-2.416-1.321-4.702-2.76-6.644z"></path>
<path d="M5.018 28.832c1.744 1.863 4.233 2.873 6.768 2.924 0.802 0.085 2.749-0.028 0.926-0.028-2.45-0.023-5.029-0.536-6.892-2.246-0.271-0.215-0.536-0.429-0.801-0.649z"></path>
<path d="M9.815 0.652c-0.866 0.019-2.050 0.654-2.867 0.832-2.201 0.751-2.867 3.234-3.104 5.3-0.638 5.735-1.247 11.486-2.574 17.114-0.22 1.603-0.898 3.121-1.039 4.719 1.174 0.92 3.229 1.174 4.132 2.754 0.491 0.124 0.288-1.998 0.497-2.76 0.502-6.762 2.162-13.389 4.397-19.767-0.023-1.298-1.259-2.23-1.648-3.443 1.682 2.122 2.743 4.764 2.85 7.479 0.361 4.414-1.744 8.478-3.759 12.254-0.485 1.343-2.608 3.325-0.751 4.431 1.75 1.383 3.985 2.117 6.22 2.094 0.485 0.023 0.965 0.051 1.445 0.073 0.271-4.866 0.655-9.748 0.288-14.613-0.139-1.989-0.415-3.958-0.776-5.912 0.155 1.434 0.26 2.892 0.339 4.643 0.028 0.621 0.065 1.394 0.081 1.718s0.020 0.589 0.008 0.589c-0.012 0-0.050-0.13-0.085-0.288-0.26-1.184-0.747-2.831-1.883-6.357-0.48-1.49-0.954-2.979-1.054-3.31-0.464-1.537-0.973-3.548-1.16-4.589-0.106-0.587-0.124-1.93-0.030-2.24 0.079-0.26 0.263-0.533 0.472-0.719zM11.803 24.057c0.073-0.018-0.357 0.364-0.617 0.549-0.462 0.329-1.154 0.631-2.024 0.886-0.702 0.205-1.426 0.324-1.476 0.241-0.011-0.017 3.978-1.641 4.118-1.676z"></path>
<path d="M19.197 0.327c1.947 0.621 4.414 0.734 5.639 2.613 1.355 2.275 1.23 5.024 1.592 7.564 0.547 6.040 1.755 11.989 3.2 17.87 0.107 1.055-0.378-1.383-0.508-1.817-1.389-5.78-2.421-11.65-2.924-17.582-0.254-2.23-0.339-4.713-1.817-6.531-1.383-1.366-3.477-1.484-5.204-2.055z"></path>
<path d="M29.74 29.007c-1.778 0.22-3.488 1.304-4.487 2.636 0.943-1.4 2.416-2.41 4.115-2.574l0.186-0.028z"></path>
<path d="M20.359 8.523c2.111 6.181 3.849 12.531 4.386 19.061 0.147 1.411 0.277 2.822 0.412 4.233-0.423-2.675-0.491-5.402-0.954-8.072-0.717-5.204-2.246-10.239-3.912-15.2z"></path>
<path d="M22.115 5.407c-1.321 2.088-2.512 4.346-2.715 6.852-0.48 4.29 1.309 8.399 3.33 12.068 0.706 1.428 1.688 2.8 2.060 4.346-0.356-1.112-1.027-2.354-1.659-3.449-2.19-4.019-4.408-8.455-3.776-13.174 0.288-2.416 1.326-4.702 2.76-6.644z"></path>
<path d="M24.723 28.832c-1.744 1.863-4.233 2.873-6.768 2.924-0.802 0.085-2.749-0.028-0.926-0.028 2.45-0.023 5.029-0.536 6.892-2.246 0.271-0.215 0.536-0.429 0.802-0.649z"></path>
<path d="M19.934 0.648c0.808 0.659 0.732 2.294-0.272 5.96-0.36 1.314-0.528 1.861-1.557 5.053-0.963 2.99-1.312 4.143-1.682 5.567l-0.248 0.953 0.028-0.727c0.097-2.544 0.225-4.479 0.423-6.316-0.367 1.977-0.648 3.969-0.788 5.981-0.367 4.866 0.017 9.748 0.288 14.613 0.48-0.023 0.96-0.051 1.445-0.073 2.235 0.023 4.47-0.711 6.22-2.094 1.857-1.106-0.265-3.087-0.751-4.431-2.015-3.776-4.12-7.84-3.759-12.254 0.107-2.715 1.168-5.357 2.85-7.479-0.389 1.214-1.626 2.145-1.648 3.443 2.235 6.378 3.895 13.005 4.397 19.767 0.209 0.762 0.006 2.884 0.497 2.76 0.903-1.58 2.958-1.834 4.132-2.754-0.141-1.597-0.818-3.116-1.038-4.719-1.321-5.628-1.936-11.379-2.574-17.114-0.237-2.066-0.903-4.55-3.104-5.3-0.814-0.178-1.993-0.812-2.858-0.836zM18.098 24.062c0.012-0.012 4.060 1.595 4.089 1.623 0.007 0.006-0.11 0.011-0.26 0.010-0.202-0.002-0.401-0.030-0.777-0.113-1.235-0.271-1.861-0.526-2.369-0.966-0.056-0.049-0.236-0.19-0.399-0.315s-0.291-0.232-0.284-0.239z"></path>
<path d="M10.278 0c-1.936 0.553-1.445 3.059-1.118 4.555 1.044 4.781 3.099 9.296 4.053 14.088 0.356 1.665 1.106 0.090 0.728-0.773-0.209-5.086-0.463-10.278-2.23-15.104-0.271-1.4 0.847-2.63-1.434-2.766zM10.307 0.35c1.225-0.096 1.36 1.084 0.892 1.784 0.474 1.891 1.259 3.697 1.49 5.65 0.61 3.545 0.802 7.14 0.909 10.73-1.123-5.057-3.291-9.833-4.262-14.93-0.135-1.089-0.423-2.833 0.971-3.234z"></path>
<path d="M19.462 0c1.936 0.553 1.445 3.059 1.123 4.555-1.050 4.781-3.104 9.296-4.058 14.088-0.356 1.665-1.106 0.090-0.728-0.773 0.209-5.086 0.463-10.278 2.23-15.104 0.271-1.4-0.847-2.63 1.434-2.766zM19.434 0.35c-1.225-0.096-1.36 1.084-0.892 1.784-0.474 1.891-1.259 3.697-1.49 5.65-0.61 3.545-0.802 7.14-0.909 10.73 1.123-5.057 3.291-9.833 4.262-14.93 0.135-1.089 0.423-2.833-0.971-3.234z"></path>
<path d="M17.853 23.893c0.881 1.219 2.512 1.693 3.945 1.846-0.181-0.079-2.342-0.344-3.025-1.118-0.322-0.226-0.627-0.468-0.92-0.728z"></path>
</svg>
