<!-- Generated by IcoMoon.io -->
<svg version="1.1" xmlns="http://www.w3.org/2000/svg" width="25" height="32" viewBox="0 0 25 32">
<title>pantalon_black</title>
<path fill="#000" d="M11.865 0c-2.217 0.002-3.956 0.376-3.967 0.874-0.235-0.040-0.892 2.711-1.994 7.244-1.133 4.663-2.642 10.715-4.804 17.907-0.216 0.711-0.425 1.408-0.71 2.022-0.107 0.211-0.254 0.528-0.353 0.973-0.065 0.305-0.048 0.655 0.072 1.026 0.123 0.381 0.401 0.713 0.819 0.941 0.457 0.179 0.785 0.212 0.946 0.194 0.147 0.003 0.298 0.017 0.452 0.039 0.808 0.113 1.699 0.439 2.711 0.635 0.617 0.127 1.283 0.188 1.978 0.112 0.714-0.074 1.429-0.344 2.040-0.829 0.397-0.295 0.729-0.767 0.884-1.388 0.062-0.404 0.042-0.717 0.009-0.929-0.691-6.628 0.372-12.313 1.515-16.299 0.337-1.175 0.67-2.195 0.968-3.058 0.304 0.962 0.822 2.517 1.355 4.617 0.915 3.602 1.767 8.74 1.13 14.742-0.033 0.212-0.054 0.523 0.008 0.925 0.153 0.617 0.482 1.087 0.878 1.382 0.607 0.483 1.32 0.754 2.034 0.829 0.693 0.076 1.359 0.017 1.976-0.109 1.202-0.231 2.235-0.649 3.164-0.669 0.16 0.019 0.487-0.014 0.946-0.193 0.14-0.076 0.265-0.165 0.373-0.263 0.214-0.194 0.364-0.425 0.446-0.678 0.12-0.371 0.137-0.721 0.073-1.026-0.098-0.445-0.245-0.762-0.352-0.974-0.284-0.615-0.492-1.311-0.708-2.023-2.182-7.271-3.759-13.284-4.999-18.029-1.195-4.572-1.938-7.354-2.178-7.308-0.024 0.005-0.043 0.040-0.056 0.101-0.524-0.412-2.207-0.741-4.206-0.783-0.152-0.003-0.301-0.005-0.449-0.005zM7.968 1.051c0.311 0.385 1.639 0.712 3.34 0.833-1.299-0.069-2.109-0.206-2.855-0.489l-0.433-0.165-0.059 1.131c-0.114 2.189-0.972 7.459-1.993 12.252-1.008 4.73-2.93 12.058-3.63 13.841l-0.299 0.762 0.477 0.057c0.263 0.031 1.066 0.201 1.786 0.377s1.435 0.339 1.589 0.361c0.793 0.115 1.484-0.023 1.903-0.38l0.296-0.252-0.093-1.168c-0.473-5.928 0.696-12.619 3.177-18.192 0.954-2.143 2.158-4.071 2.394-3.834 0.034 0.034-0.144 0.641-0.397 1.348l-0.459 1.286 0.434 0.777c0.932 1.669 2.027 4.601 2.644 7.073 0.887 3.559 1.23 7.038 1.070 10.85-0.077 1.828-0.075 1.855 0.126 2.069 0.296 0.315 1.109 0.527 1.738 0.454 0.283-0.033 1.089-0.205 1.792-0.382s1.509-0.349 1.79-0.382l0.511-0.060-0.311-0.776c-0.871-2.169-3.327-11.678-4.501-17.427-0.719-3.519-1.506-8.333-1.507-9.214l-0-0.383-0.491 0.166c-0.697 0.235-1.613 0.341-2.92 0.347 1.628-0.032 2.947-0.266 3.418-0.599 0.041 1.094 0.373 3.536 1.007 6.942 0.88 4.731 2.308 11.062 4.412 18.292 0.207 0.721 0.441 1.499 0.787 2.276 0.077 0.188 0.146 0.322 0.182 0.417-0.002 0-0.003 0-0.004 0.001-1.358 0.084-2.474 0.518-3.45 0.721-0.502 0.097-0.969 0.154-1.388 0.103-0.421-0.055-0.812-0.178-1.071-0.399-0.142-0.142-0.261-0.247-0.244-0.3-0.025-0.029-0-0.162 0.008-0.384 0.541-6.313-0.605-11.636-1.858-15.247-0.857-2.469-1.717-4.135-2.236-4.908 0.59-1.658 0.982-2.577 0.858-2.642-0.198-0.104-1.685 1.973-3.171 5.95-1.492 3.996-2.855 9.885-2.243 16.849 0.008 0.222 0.034 0.353 0.009 0.38 0.019 0.049-0.098 0.152-0.238 0.294-0.257 0.221-0.647 0.344-1.065 0.4-0.418 0.052-0.886-0.004-1.386-0.1-0.822-0.17-1.742-0.501-2.82-0.652-0.205-0.029-0.416-0.051-0.631-0.064-0.003-0-0.004-0-0.007-0.001 0.036-0.095 0.105-0.23 0.182-0.418 0.346-0.777 0.579-1.555 0.785-2.276 2.086-7.21 3.418-13.505 4.207-18.193 0.671-3.99 0.931-6.638 0.84-7.318z"></path>
<path fill="#fff" d="M12.851 3.117c0 0.619-0.188 1.121-0.421 1.121s-0.421-0.502-0.421-1.121c0-0.619 0.188-1.121 0.421-1.121s0.421 0.502 0.421 1.121z"></path>
<path fill="#fff" d="M8.943 4.395c-0.894 0.894-1.752 1.486-1.916 1.322s0.428-1.022 1.322-1.916c0.894-0.894 1.752-1.486 1.916-1.322s-0.428 1.022-1.322 1.916z"></path>
<path fill="#fff" d="M15.918 4.442c0.894 0.894 1.752 1.486 1.916 1.322s-0.427-1.022-1.322-1.916c-0.894-0.894-1.752-1.486-1.916-1.322s0.428 1.022 1.322 1.916z"></path>
</svg>
