<!-- Generated by IcoMoon.io -->
<svg version="1.1" xmlns="http://www.w3.org/2000/svg" width="20" height="32" viewBox="0 0 20 32">
<title>robe_black</title>
<path d="M6.657 0c-0.235 0.005-0.463 0.074-0.662 0.2-0.226 0.144-0.401 0.349-0.506 0.593-0.081 0.202-0.114 0.376-0.133 0.509-0.27 1.531-0.665 3.247-0.399 4.993 0.009 0.052 0.018 0.104 0.028 0.156 0.253 1.314 0.847 2.498 1.283 3.593 0.149 0.387 0.281 0.75 0.326 1.102 0.041 0.351 0.024 0.697-0.111 0.962-0.142 0.356-0.548 0.651-0.955 1.020-2.553 2.207-4.141 5.154-4.902 8.026-0.888 3.353-0.726 6.65-0.167 9.368 0.036 0.181 0.079 0.373 0.15 0.573 0.071 0.204 0.183 0.407 0.345 0.585 0.085 0.096 0.198 0.184 0.341 0.25 0.147 0.070 0.323 0.089 0.508 0.046 0.117-0.035 0.21-0.085 0.279-0.14 0.070-0.054 0.122-0.103 0.162-0.141 0.669-0.628 1.531-0.995 2.34-1.191 0.941-0.226 1.911-0.236 2.728-0.197 0.14 0.007 0.274 0.017 0.408 0.026 0.049 0.264 0.090 0.415 0.115 0.412s0.031-0.15 0.031-0.403c0.54 0.041 1.031 0.102 1.477 0.172-1.016 0.343-1.527 0.677-1.508 0.724 0.023 0.056 0.803-0.297 2.26-0.59 1.456 0.293 2.237 0.646 2.26 0.59 0.019-0.047-0.492-0.38-1.508-0.724 0.446-0.070 0.937-0.13 1.477-0.172-0.001 0.253 0.006 0.4 0.030 0.403s0.066-0.148 0.115-0.412c0.135-0.009 0.268-0.019 0.408-0.026 0.817-0.039 1.787-0.029 2.728 0.197 0.809 0.195 1.671 0.563 2.34 1.191 0.040 0.038 0.092 0.087 0.162 0.141 0.069 0.055 0.162 0.105 0.279 0.14 0.185 0.043 0.361 0.024 0.508-0.046 0.142-0.067 0.256-0.155 0.341-0.25 0.162-0.179 0.274-0.381 0.345-0.585 0.071-0.199 0.114-0.392 0.15-0.573 0.558-2.719 0.721-6.016-0.168-9.368-0.761-2.873-2.349-5.819-4.902-8.026-0.407-0.369-0.813-0.664-0.955-1.020-0.135-0.264-0.152-0.61-0.111-0.962 0.045-0.352 0.177-0.715 0.326-1.102 0.436-1.095 1.031-2.279 1.283-3.593 0.010-0.052 0.019-0.104 0.028-0.156 0.267-1.746-0.129-3.462-0.399-4.993-0.019-0.133-0.053-0.307-0.133-0.509-0.105-0.244-0.28-0.449-0.506-0.593-0.228-0.144-0.492-0.213-0.764-0.198-0.273 0.016-0.53 0.118-0.742 0.294-0.212 0.178-0.357 0.419-0.416 0.691-0.040 0.219-0.034 0.413-0.004 0.573 0.106 0.619 0.357 1.090 0.452 1.496 0.044 0.205 0.068 0.395 0.033 0.55-0.036 0.15-0.1 0.291-0.19 0.348-0.047 0.044-0.142 0.079-0.262 0.127-0.432 0.158-0.953 0.252-1.49 0.473-0.247 0.101-0.492 0.238-0.717 0.42-0.225-0.182-0.47-0.319-0.717-0.42-0.536-0.221-1.057-0.314-1.49-0.473-0.121-0.048-0.215-0.083-0.263-0.127-0.091-0.057-0.155-0.199-0.19-0.348-0.035-0.155-0.011-0.345 0.033-0.55 0.095-0.406 0.346-0.877 0.452-1.496 0.029-0.16 0.036-0.354-0.004-0.573-0.059-0.272-0.204-0.512-0.416-0.691-0.211-0.176-0.469-0.278-0.742-0.294-0.034-0.002-0.068-0.002-0.101-0.001zM6.702 1.002c0.054 0.003 0.117 0.026 0.156 0.060 0.040 0.032 0.074 0.087 0.083 0.134 0.015 0.040 0.006 0.115-0.004 0.215-0.047 0.386-0.282 0.828-0.419 1.387 0.040-0.22 0.093-0.448 0.171-0.694 0.134-0.418 0.217-0.829 0.185-0.911-0.066-0.173-0.29-0.2-0.385-0.046-0.148 0.24-0.538 3.061-0.537 3.883 0.002 1.166 0.159 1.791 0.951 3.774 0.471 1.18 0.614 1.621 0.672 2.116-0.074-0.449-0.214-0.862-0.366-1.244-0.449-1.161-1.026-2.287-1.228-3.409-0.008-0.044-0.015-0.089-0.022-0.133-0.256-1.473 0.135-3.084 0.39-4.662 0.027-0.135 0.037-0.232 0.064-0.279 0.024-0.057 0.070-0.112 0.12-0.143s0.116-0.050 0.17-0.046zM13.487 1.002c0.055-0.004 0.121 0.015 0.17 0.046s0.095 0.086 0.12 0.143c0.027 0.047 0.037 0.144 0.064 0.279 0.255 1.578 0.646 3.19 0.389 4.662-0.007 0.044-0.014 0.089-0.022 0.133-0.202 1.122-0.779 2.248-1.228 3.409-0.163 0.408-0.313 0.849-0.383 1.335-0.074 0.494-0.024 1.029 0.204 1.528 0.075 0.144 0.159 0.276 0.249 0.398-0.241-0.283-0.34-0.465-0.4-0.688-0.231-0.863-0.092-1.624 0.623-3.422 0.829-2.085 0.952-2.574 0.952-3.783 0-0.927-0.311-3.277-0.5-3.773-0.093-0.244-0.336-0.305-0.412-0.104-0.026 0.068 0.062 0.478 0.196 0.911 0.111 0.36 0.181 0.684 0.216 0.979-0.012-0.077-0.027-0.152-0.045-0.225-0.136-0.576-0.381-1.026-0.428-1.42-0.010-0.1-0.019-0.175-0.004-0.215 0.009-0.047 0.043-0.101 0.083-0.134 0.039-0.034 0.101-0.057 0.156-0.060zM13.75 3.342c0.002 0.059 0 0.115-0.001 0.171 0.003-0.058 0.003-0.115 0.001-0.171zM13.747 3.553c-0.022 0.547-0.21 0.952-0.578 1.213-0.15 0.106-0.725 0.333-1.278 0.503s-1.027 0.344-1.053 0.386c-0.042 0.068 0.154 2.418 0.285 3.416 0.028 0.217 0.295 2.215 0.593 4.441 0.677 5.064 0.897 7.068 1.043 9.5 0.108 1.797 0.074 4.735-0.070 6.158l-0.060 0.591 1.019-0.035c1.771-0.060 3.249 0.305 4.324 1.067 0.298 0.211 0.574 0.387 0.612 0.39 0.422 0.036 0.832-3.696 0.665-6.052-0.154-2.168-0.558-3.912-1.318-5.688-0.972-2.273-1.776-3.405-3.902-5.495-0.129-0.127-0.208-0.208-0.313-0.313 0.102 0.088 0.203 0.17 0.298 0.247 2.388 2.032 3.909 4.802 4.669 7.512 0.888 3.167 0.787 6.343 0.312 8.986-0.033 0.176-0.062 0.333-0.109 0.47-0.049 0.138-0.106 0.259-0.184 0.342-0.041 0.043-0.074 0.075-0.1 0.085-0.023 0.007-0.042 0.016-0.036 0.013 0.001 0.005-0.012-0.006-0.039-0.021-0.027-0.017-0.062-0.050-0.11-0.092-0.81-0.708-1.783-1.093-2.677-1.271-1.038-0.208-2.055-0.181-2.896-0.1-0.099 0.009-0.197 0.020-0.293 0.030 0.008-0.057 0.015-0.102 0.023-0.164 0.245-1.888 0.403-5.036-0.132-10.115-0.308-2.934-0.845-6.32-1.313-10.052-0.115-0.919-0.226-1.875-0.275-2.825-0.007-0.227-0.024-0.505-0.119-0.814-0.016-0.047-0.035-0.093-0.054-0.138 0.137-0.114 0.309-0.207 0.501-0.287 0.404-0.17 0.907-0.252 1.45-0.444 0.156-0.051 0.338-0.132 0.526-0.267 0.312-0.249 0.501-0.587 0.562-0.939 0.014-0.080 0.023-0.16 0.028-0.238zM6.469 3.77c0.001 0.007 0.001 0.014 0.003 0.022 0.061 0.351 0.251 0.689 0.562 0.939 0.188 0.135 0.37 0.216 0.526 0.267 0.543 0.192 1.047 0.274 1.45 0.444 0.192 0.081 0.364 0.173 0.501 0.288-0.020 0.045-0.038 0.091-0.054 0.137-0.095 0.309-0.112 0.587-0.119 0.814-0.049 0.95-0.16 1.906-0.275 2.825-0.468 3.733-1.004 7.118-1.313 10.052-0.191 1.813-0.291 3.37-0.333 4.721 0.017-1.068 0.044-2.074 0.094-2.645 0.186-2.144 0.357-3.565 1.003-8.375 0.576-4.285 0.92-7.45 0.825-7.603-0.026-0.042-0.497-0.215-1.047-0.385s-1.102-0.375-1.226-0.457c-0.337-0.221-0.536-0.577-0.597-1.045zM10.095 8.575c0.044 0.355 0.090 0.706 0.137 1.048 0.521 3.751 1.121 7.113 1.504 10.018 0.677 5.145 0.642 7.998 0.599 10.014-0.002 0.078-0.003 0.137-0.004 0.207-0.871 0.106-1.615 0.261-2.235 0.428-0.621-0.167-1.365-0.321-2.236-0.427-0.001-0.070-0.002-0.129-0.004-0.207-0.044-2.016-0.078-4.868 0.599-10.014 0.383-2.904 0.983-6.266 1.504-10.018 0.048-0.342 0.094-0.694 0.137-1.048zM10.143 9.215c-0.059 0.033-0.165 0.453-0.242 1.038-0.064 0.488-0.379 2.594-0.699 4.68-1.016 6.62-1.281 9.254-1.281 12.762v2.106l0.369 0.065c0.203 0.036 0.635 0.125 0.961 0.197s0.769 0.111 0.985 0.087c0.622-0.069 1.928-0.315 1.988-0.374 0.093-0.093 0.045-4.189-0.067-5.632-0.206-2.663-0.458-4.566-1.573-11.863-0.219-1.431-0.397-2.714-0.397-2.852 0-0.165-0.017-0.23-0.044-0.215zM7.616 11.532c0.008 0.844-0.211 1.243-1.007 1.995-2.053 1.938-2.926 3.037-3.843 4.834-0.888 1.74-1.397 3.372-1.698 5.441-0.29 1.99-0.068 6.409 0.361 7.211 0.124 0.231 0.125 0.231 0.639-0.123 1.241-0.854 2.63-1.218 4.424-1.162l1.093 0.035-0.090-0.64c-0.046-0.327-0.069-1.162-0.082-2.112 0.036 1.084 0.114 1.961 0.205 2.663 0.008 0.062 0.016 0.107 0.023 0.164-0.096-0.011-0.194-0.021-0.293-0.030-0.841-0.081-1.859-0.108-2.896 0.1-0.895 0.179-1.867 0.563-2.677 1.271-0.049 0.042-0.084 0.075-0.111 0.092-0.027 0.015-0.040 0.025-0.039 0.021 0.006 0.003-0.012-0.006-0.036-0.013-0.026-0.009-0.059-0.042-0.1-0.085-0.078-0.084-0.135-0.205-0.184-0.342-0.047-0.137-0.076-0.294-0.109-0.47-0.475-2.643-0.576-5.819 0.311-8.986 0.759-2.709 2.281-5.479 4.669-7.511 0.401-0.325 0.891-0.725 1.212-1.345 0.149-0.327 0.216-0.669 0.227-1.006z"></path>
</svg>
