<!-- Generated by IcoMoon.io -->
<svg version="1.1" xmlns="http://www.w3.org/2000/svg" width="21" height="32" viewBox="0 0 21 32">
<title>robe_2b_black</title>
<path d="M5.618 2.028c0.195 0.023 0.39 0.033 0.585 0.049 0.093 0.004 0.185 0.015 0.278 0.013 0.515-0.012 1.061-0.157 1.535-0.474 0.109-0.073 0.21-0.172 0.315-0.258 0.162-0.193 0.258-0.264 0.364-0.528 0.030-0.075 0.053-0.158 0.064-0.245 0.017-0.131-0.007-0.274-0.051-0.385-0.018-0.046-0.046-0.082-0.069-0.122-0.024-0.026-0.049-0.051-0.073-0.077-0.007-0.010-0.101 0.151-0.094 0.161v0c0.017 0.016 0.034 0.033 0.051 0.049 0.036 0.053 0.067 0.084 0.079 0.165 0.016 0.107-0.014 0.197-0.059 0.279-0.105 0.188-0.219 0.262-0.358 0.389-0.102 0.068-0.202 0.144-0.306 0.204-0.362 0.209-0.761 0.366-1.142 0.459-0.089 0.022-0.471 0.081-0.578 0.097-0.189 0.017-0.379 0.026-0.568 0.049-0.008 0.003 0.021 0.179 0.029 0.176z"></path>
<path d="M14.623 3.57c-0.023-0.023-0.045-0.048-0.068-0.070-0.106-0.099-0.218-0.192-0.326-0.288-0.103-0.092-0.204-0.185-0.307-0.276-0.252-0.221-0.507-0.437-0.76-0.656-0.294-0.248-0.588-0.497-0.882-0.746-0.045-0.038-0.091-0.077-0.137-0.115-0.065-0.055-0.053-0.076-0.066-0.037-0.040 0.036-0.087 0.067-0.121 0.109-0.001 0.001 0.032 0.031 0.020 0.026-0.025-0.010 0.038-0.098 0.078-0.114-0.012-0.006-0.094 0.158-0.083 0.164v0c0.025 0.006 0.052 0.029 0.074 0.017 0.107-0.056 0.127-0.124 0.061-0.202-0.010-0.012-0.021-0.034-0.037-0.031-0.059 0.015-0.109 0.053-0.164 0.080 0.002 0.017-0 0.036 0.005 0.052 0.029 0.086 0.1 0.176 0.153 0.242 0.246 0.304 0.538 0.566 0.829 0.824 0.133 0.112 0.263 0.227 0.398 0.335 0.375 0.299 0.773 0.574 1.195 0.803 0.008 0.010 0.145-0.108 0.136-0.118z"></path>
<path d="M13.164 7.162c-0.052 1.173 0.017 2.349 0.071 3.521 0.114 1.062 0.069 0.554 0.138 1.525 0 0 0.007 0.001 0.007 0.001v0c-0.034-0.964-0.028-0.461-0.012-1.509-0.034-1.167-0.090-2.338-0.032-3.505 0 0-0.173-0.032-0.173-0.032z"></path>
<path d="M15.506 7.062c-0.080 0.574-0.164 1.148-0.265 1.719-0.044 0.248-0.096 0.495-0.136 0.744-0.039 0.239-0.067 0.48-0.1 0.72-0.042 0.214-0.083 0.428-0.125 0.642 0 0 0.007-0.002 0.007-0.002v0c0.051-0.216 0.103-0.433 0.154-0.649 0.070-0.247 0.147-0.491 0.209-0.74 0.201-0.806 0.329-1.63 0.428-2.455 0 0-0.171 0.019-0.171 0.019z"></path>
<path d="M2.504 3.843c-0.052 0.874-0.162 1.746-0.183 2.622-0.007 0.287 0.003 0.573 0.005 0.86-0.013 0.263-0.026 0.527-0.038 0.79 0 0 0.007 0.001 0.007 0.001v0c0.019-0.263 0.039-0.526 0.058-0.788 0.039-0.284 0.083-0.567 0.116-0.851 0.031-0.271 0.050-0.544 0.075-0.816 0.054-0.596 0.114-1.193 0.15-1.79 0 0-0.188-0.027-0.188-0.027z"></path>
<path d="M2.734 2.51c-0.091 0.091-0.158 0.204-0.236 0.307-0.044 0.098-0.099 0.191-0.132 0.294-0.024 0.075-0.033 0.156-0.038 0.237-0.023 0.345 0.125 0.666 0.335 0.957 0.071 0.085 0.136 0.175 0.214 0.255 0.273 0.281 0.624 0.477 0.984 0.604-0.035 0.049-0.070 0.098-0.102 0.146-0.057 0.085-0.109 0.173-0.164 0.26-0.228 0.4-0.405 0.835-0.466 1.285-0.046 0.335-0.023 0.397 0.001 0.721 0.026 0.113 0.045 0.23 0.079 0.339 0.125 0.406 0.353 0.739 0.616 1.015 0.059 0.062 0.123 0.117 0.185 0.176 0.264 0.242 0.565 0.425 0.878 0.584 0.010 0.004 0.019 0.009 0.029 0.013 0.14 0.202 0.411 0.701 0.48 0.835 0.272 0.53 0.595 1.229 0.819 1.772 0.138 0.335 0.261 0.676 0.391 1.014 0.403 1.142 0.227 0.602 0.537 1.615 0.001 0.005 0.016 0.005 0.039 0.003 0.202 0.513-0.001 1.105-0.17 1.589-0.357 1.022-0.662 1.584-1.14 2.594-0.303 0.569-0.595 1.143-0.908 1.706-0.567 1.020-1.479 2.558-2.109 3.552-0.419 0.662-1.221 1.869-1.734 2.533-0.182 0.235-0.387 0.45-0.58 0.674-0.117 0.097-0.234 0.194-0.351 0.29-0.018-0.010-0.055-0.008-0.054-0.029 0.004-0.055 0.045-0.1 0.067-0.151 0-0.015-0.202-0.018-0.202-0.003 0.020 0.113-0.018 0.258 0.060 0.339 0.040 0.042 0.088 0.061 0.141 0.065 0.012 0.008 0.025 0.015 0.037 0.022 0.624 0.394 0.385 0.274 1.22 0.764 0.895 0.526 1.494 0.856 2.471 1.284 0.501 0.219 1.018 0.403 1.527 0.605 1.461 0.522 2.973 0.875 4.513 1.061 1.062 0.128 1.975 0.199 3.040 0.142 0.447-0.024 0.89-0.098 1.335-0.147 0.904-0.189 2.335-0.678 3.085-1.252 0.069-0.053 0.839-0.692 1.544-1.283 0.046 0.070 0.088 0.145 0.164 0.182 0.534 0.26 0.805-0.452 0.959-0.747 0.084-0.315 0.196-0.624 0.252-0.945 0.168-0.968 0.196-2.046 0.124-3.016-0.099-1.34-0.325-2.59-0.75-3.875-0.202-0.611-0.489-1.194-0.734-1.79-0.306-0.491-0.572-1.006-0.918-1.472-1.087-1.463-2.5-2.436-4.218-3.134-0.265-0.108-0.541-0.191-0.811-0.287-0.18-0.047-0.357-0.103-0.539-0.14-0.733-0.495-0.817-0.811-1.095-3.175 0.113-2.111 0.309-2.61 1.899-3.606 0.679-0.404 2.858 0.395 3.251-0.805 0.109-0.593 0.251-0.806 0.142-1.192-0.8-2.006-1.535-1.597-2.156-1.759-1.002 0.371-1.911 0.35-2.878 0.432-1.229 0.061-2.635 0.195-3.707-0.55-3.083-2.177-3.091-2.366-5.224-0.909zM8.269 3.916c1.091 0.519 2.33 0.442 3.502 0.424 0.986-0.068 1.98-0.181 2.922-0.499 1.056 0.121 1.338 0.342 1.748 1.542 0.112 0.365 0.060 0.452-0.158 1.186-0.515 0.766-2.249 0.362-3.071 0.567-2.090 1.378-1.946 2.227-2.137 3.617 0.45 2.921 0.532 2.727 1.329 3.546 0.169 0.043 0.333 0.102 0.5 0.153 0.946 0.397 1.894 0.824 2.718 1.425 0.798 0.582 1.461 1.223 2.026 2.017 0.323 0.453 0.566 0.952 0.849 1.428 0.221 0.579 0.479 1.147 0.663 1.738 0.395 1.269 0.599 2.455 0.72 3.769 0.088 0.949 0.105 1.976 0.003 2.93-0.030 0.28-0.097 0.555-0.151 0.832-0.755 0.524-2.406 1.677-2.493 1.742l-0.032 0.024c-0.111 0.083-0.341 0.173-0.459 0.247-0.765 0.478-1.663 0.665-2.54 0.808-0.435 0.038-0.868 0.098-1.304 0.115-1.4 0.054-2.802-0.081-4.174-0.352-0.505-0.1-1.009-0.21-1.505-0.346-0.503-0.138-0.994-0.315-1.491-0.473-1.204-0.457-1.773-0.648-2.932-1.185-0.376-0.174-0.74-0.376-1.111-0.561-0.4-0.2-0.801-0.4-1.205-0.59 0.146-0.078 0.276-0.187 0.319-0.213 0.223-0.217 0.46-0.419 0.668-0.652 0.662-0.741 1.326-1.677 1.869-2.5 1.121-1.699 2.114-3.488 2.969-5.35 0.424-1.021 0.737-1.66 1.013-2.706 0.138-0.524 0.252-1.101 0.060-1.627-0.008-0.022-0.019-0.043-0.030-0.063 0.057-0.015 0.103-0.031 0.101-0.039-0.25-1.050-0.097-0.494-0.476-1.665-0.135-0.343-0.259-0.691-0.405-1.029-0.275-0.636-0.551-1.182-0.909-1.771-0.145-0.239-0.394-0.607-0.602-0.838 0.006-0.028-0.008-0.044-0.045-0.072-0.019-0.014-0.038-0.028-0.057-0.041-0.25-0.171-0.496-0.35-0.724-0.555-0.133-0.129-0.224-0.209-0.345-0.356-0.231-0.281-0.409-0.615-0.488-1.016-0.013-0.105-0.035-0.208-0.040-0.316-0.024-0.511 0.153-1.036 0.405-1.505 0.049-0.084 0.096-0.17 0.147-0.253 0.159-0.258 0.338-0.498 0.521-0.734 0.007-0.006-0.050-0.106-0.056-0.099l-0-0c-0.146 0.104-0.281 0.243-0.404 0.395-0.338-0.141-0.673-0.323-0.933-0.595-0.069-0.073-0.129-0.154-0.194-0.231-0.184-0.25-0.337-0.524-0.31-0.827 0.006-0.068 0.016-0.138 0.041-0.2 0.035-0.086 0.091-0.16 0.137-0.24 0.078-0.088 0.144-0.187 0.233-0.264 2.413-1.97 3.019-0.131 5.317 1.26zM19.716 28.675c-0.065 0.162-0.157 0.583-0.406 0.685-0.032 0.013-0.054-0.043-0.075-0.070-0.033-0.043-0.060-0.091-0.089-0.137 0.204-0.171 0.413-0.346 0.569-0.478z"></path>
<path d="M10.961 31.462c-1.074-0.086-2.704-0.378-3.762-0.673-1.465-0.409-3.449-1.194-5.223-2.066l-1.385-0.681 0.498-0.478c1.313-1.261 2.994-3.783 4.535-6.805 1.407-2.761 2.066-4.778 1.833-5.616-0.034-0.124-0.037-0.21-0.007-0.228 0.058-0.036-0.17-0.92-0.419-1.63-0.544-1.551-1.419-3.214-1.973-3.754-0.105-0.102-0.366-0.321-0.581-0.487-0.869-0.671-1.242-1.569-1.020-2.455 0.106-0.424 0.413-1.045 0.731-1.481 0.139-0.191 0.253-0.375 0.253-0.408 0-0.132-0.093-0.104-0.276 0.084l-0.192 0.197-0.344-0.181c-0.591-0.31-1.044-0.908-1.044-1.378 0-0.448 0.475-0.928 1.351-1.363 0.397-0.198 0.448-0.21 0.853-0.21 0.383 0 0.466 0.018 0.756 0.161 0.179 0.088 0.518 0.309 0.752 0.49 1.868 1.44 2.062 1.559 2.859 1.742 0.423 0.097 0.622 0.11 1.781 0.111 1.47 0.001 2.136-0.067 3.185-0.328 0.567-0.141 0.655-0.151 0.92-0.102 0.649 0.119 0.959 0.401 1.237 1.12 0.218 0.565 0.223 0.628 0.096 1.1-0.204 0.756-0.395 0.841-2.031 0.894l-1.107 0.036-0.348 0.247c-0.46 0.327-1.022 0.864-1.248 1.192-0.258 0.374-0.414 0.869-0.512 1.617l-0.084 0.648 0.136 0.803c0.17 1 0.348 1.692 0.504 1.955 0.066 0.111 0.254 0.334 0.418 0.495 0.247 0.242 0.363 0.315 0.668 0.417 0.507 0.169 2.093 0.955 2.55 1.264 1.61 1.086 2.692 2.467 3.458 4.412 0.649 1.649 0.979 3.235 1.116 5.377 0.062 0.97 0.016 2.062-0.116 2.749l-0.061 0.316-1.282 0.894c-1.797 1.252-2.326 1.523-3.484 1.783-1.097 0.246-2.629 0.331-3.993 0.222z"></path>
</svg>
