<!-- Generated by IcoMoon.io -->
<svg version="1.1" xmlns="http://www.w3.org/2000/svg" width="26" height="32" viewBox="0 0 26 32">
<title>short_black</title>
<path d="M6.795 4.126c-0.191-0.001-0.35 0.011-0.479 0.036-0.46 0.087-0.576 0.146-0.824 0.416-0.224 0.244-3.956 7.796-4.329 8.76-0.513 1.326-0.865 2.804-1 4.197-0.103 1.068-0.068 3.905 0.050 4.022 0.127 0.126 0.339 0.028 0.972-0.448 0.316-0.238 0.608-0.432 0.65-0.432s0.372 0.276 0.734 0.613c1.084 1.012 1.852 1.545 2.973 2.063 1.148 0.53 2.81 1.050 4.159 1.301 0.368 0.068 0.924 0.102 1.499 0.091 0.804-0.016 0.958-0.040 1.279-0.198 0.283-0.14 0.38-0.234 0.435-0.421 0.044-0.149 0.127-0.252 0.219-0.271 0.082-0.017 1.086-0.045 2.231-0.062 1.658-0.024 2.291-0.063 3.105-0.189 2.488-0.386 4.171-0.928 4.741-1.529 0.19-0.2 0.207-0.258 0.17-0.573-0.067-0.562-0.866-2.874-1.461-4.222-1-2.269-1.133-2.92-1-4.911 0.178-2.676-0.21-5.415-1.094-7.718l-0.080-0.209-0.315 0.29c-0.173 0.16-0.502 0.36-0.73 0.446-1.15 0.43-3.094 0.357-6.514-0.245-3.345-0.589-3.982-0.693-4.716-0.766-0.258-0.026-0.482-0.039-0.674-0.039zM14.453 6.669c0.106 0.004 0.24 0.069 0.386 0.181l0.001 0.001c0.186-0.131 0.349-0.178 0.443-0.111 0.039 0.028 0.063 0.072 0.073 0.13l-0.001-0.004c0.020 0.11-0.006 0.262-0.070 0.438l-0.001 0.003c0.022 0.029 0.048 0.063 0.073 0.098 0.297 0.415 0.454 0.835 0.413 1.058l-0.001 0.004c-0.010 0.054-0.034 0.099-0.072 0.127-0.148 0.106-0.464-0.071-0.775-0.41l-0.005-0.006c-0.024-0.025-0.053-0.059-0.081-0.093l-0.005-0.006c-0.044 0.055-0.085 0.102-0.126 0.146l0.005-0.006c-0.317 0.345-0.633 0.522-0.781 0.416-0.039-0.028-0.063-0.072-0.073-0.13l0.001 0.004c-0.042-0.226 0.116-0.647 0.412-1.062 0.032-0.045 0.065-0.088 0.098-0.13l-0.004 0.005c-0.082-0.202-0.115-0.374-0.094-0.492l0.001-0.004c0.010-0.054 0.034-0.099 0.072-0.127 0.031-0.022 0.070-0.032 0.115-0.030l-0.004 0zM9.664 6.94c-0.414 1.023-0.828 2.046-1.583 2.789s-1.851 1.206-2.947 1.668zM3.162 13.881l-1.096 6.283c0.050-1.315 0.097-2.581 0.28-3.629s0.499-1.851 0.816-2.655zM13.098 14.977v8.329c-0.268-1.68-0.536-3.361-0.536-4.749s0.268-2.484 0.536-3.58zM18.864 16.972c0.042-0 0.083 0 0.124 0.001 0.219 0.005 0.43 0.022 0.627 0.051 0.788 0.115 1.356 0.41 1.924 0.706l-7.126 1.182c0.8-0.624 1.601-1.247 2.504-1.592 0.635-0.242 1.322-0.347 1.947-0.347z"></path>
</svg>
